  0
SECTION
  2
HEADER
  9
$ACADVER
  1
AC1032
  9
$ACADMAINTVER
 90
      260
  9
$DWGCODEPAGE
  3
ANSI_1252
  9
$LASTSAVEDBY
  1
donglinhan
  9
$REQUIREDVERSIONS
160
                 0
  9
$INSBASE
 10
0.0
 20
0.0
 30
0.0
  9
$EXTMIN
 10
0.0
 20
-4.002695514125662
 30
0.0
  9
$EXTMAX
 10
300.7601399481059
 20
626.3923182918722
 30
0.0
  9
$LIMMIN
 10
0.0
 20
0.0
  9
$LIMMAX
 10
12.0
 20
9.0
  9
$ORTHOMODE
 70
     0
  9
$REGENMODE
 70
     1
  9
$FILLMODE
 70
     1
  9
$QTEXTMODE
 70
     0
  9
$MIRRTEXT
 70
     0
  9
$LTSCALE
 40
1.0
  9
$ATTMODE
 70
     1
  9
$TEXTSIZE
 40
0.2
  9
$TRACEWID
 40
0.05
  9
$TEXTSTYLE
  7
Standard
  9
$CLAYER
  8
0
  9
$CELTYPE
  6
CONTINUOUS
  9
$CECOLOR
 62
   256
  9
$CELTSCALE
 40
1.0
  9
$DISPSILH
 70
     0
  9
$DIMSCALE
 40
1.0
  9
$DIMASZ
 40
0.18
  9
$DIMEXO
 40
0.0625
  9
$DIMDLI
 40
0.38
  9
$DIMRND
 40
0.0
  9
$DIMDLE
 40
0.0
  9
$DIMEXE
 40
0.18
  9
$DIMTP
 40
0.0
  9
$DIMTM
 40
0.0
  9
$DIMTXT
 40
0.18
  9
$DIMCEN
 40
0.09
  9
$DIMTSZ
 40
0.0
  9
$DIMTOL
 70
     0
  9
$DIMLIM
 70
     0
  9
$DIMTIH
 70
     1
  9
$DIMTOH
 70
     1
  9
$DIMSE1
 70
     0
  9
$DIMSE2
 70
     0
  9
$DIMTAD
 70
     0
  9
$DIMZIN
 70
     0
  9
$DIMBLK
  1

  9
$DIMASO
 70
     1
  9
$DIMSHO
 70
     1
  9
$DIMPOST
  1

  9
$DIMAPOST
  1

  9
$DIMALT
 70
     0
  9
$DIMALTD
 70
     2
  9
$DIMALTF
 40
25.4
  9
$DIMLFAC
 40
1.0
  9
$DIMTOFL
 70
     0
  9
$DIMTVP
 40
0.0
  9
$DIMTIX
 70
     0
  9
$DIMSOXD
 70
     0
  9
$DIMSAH
 70
     0
  9
$DIMBLK1
  1

  9
$DIMBLK2
  1

  9
$DIMSTYLE
  2
Standard
  9
$DIMCLRD
 70
     0
  9
$DIMCLRE
 70
     0
  9
$DIMCLRT
 70
     0
  9
$DIMTFAC
 40
1.0
  9
$DIMGAP
 40
0.09
  9
$DIMJUST
 70
     0
  9
$DIMSD1
 70
     0
  9
$DIMSD2
 70
     0
  9
$DIMTOLJ
 70
     1
  9
$DIMTZIN
 70
     0
  9
$DIMALTZ
 70
     0
  9
$DIMALTTZ
 70
     0
  9
$DIMUPT
 70
     0
  9
$DIMDEC
 70
     4
  9
$DIMTDEC
 70
     4
  9
$DIMALTU
 70
     2
  9
$DIMALTTD
 70
     2
  9
$DIMTXSTY
  7
Standard
  9
$DIMAUNIT
 70
     0
  9
$DIMADEC
 70
     0
  9
$DIMALTRND
 40
0.0
  9
$DIMAZIN
 70
     0
  9
$DIMDSEP
 70
    46
  9
$DIMATFIT
 70
     3
  9
$DIMFRAC
 70
     0
  9
$DIMLDRBLK
  1

  9
$DIMLUNIT
 70
     2
  9
$DIMLWD
 70
    -2
  9
$DIMLWE
 70
    -2
  9
$DIMTMOVE
 70
     0
  9
$DIMFXL
 40
1.0
  9
$DIMFXLON
 70
     0
  9
$DIMJOGANG
 40
0.7853981633974483
  9
$DIMTFILL
 70
     0
  9
$DIMTFILLCLR
 70
     0
  9
$DIMARCSYM
 70
     0
  9
$DIMLTYPE
  6

  9
$DIMLTEX1
  6

  9
$DIMLTEX2
  6

  9
$DIMTXTDIRECTION
 70
     0
  9
$LUNITS
 70
     2
  9
$LUPREC
 70
     4
  9
$SKETCHINC
 40
0.1
  9
$FILLETRAD
 40
0.0
  9
$AUNITS
 70
     0
  9
$AUPREC
 70
     0
  9
$MENU
  1
.
  9
$ELEVATION
 40
0.0
  9
$PELEVATION
 40
0.0
  9
$THICKNESS
 40
0.0
  9
$LIMCHECK
 70
     0
  9
$CHAMFERA
 40
0.0
  9
$CHAMFERB
 40
0.0
  9
$CHAMFERC
 40
0.0
  9
$CHAMFERD
 40
0.0
  9
$SKPOLY
 70
     0
  9
$TDCREATE
 40
2460126.546851852
  9
$TDUCREATE
 40
2460126.713518519
  9
$TDUPDATE
 40
2460575.611377315
  9
$TDUUPDATE
 40
2460575.778043982
  9
$TDINDWG
 40
0.0427777778
  9
$TDUSRTIMER
 40
0.0427777778
  9
$USRTIMER
 70
     1
  9
$ANGBASE
 50
0.0
  9
$ANGDIR
 70
     0
  9
$PDMODE
 70
     0
  9
$PDSIZE
 40
0.0
  9
$PLINEWID
 40
0.0
  9
$SPLFRAME
 70
     0
  9
$SPLINETYPE
 70
     6
  9
$SPLINESEGS
 70
     8
  9
$HANDSEED
  5
3D4
  9
$SURFTAB1
 70
     6
  9
$SURFTAB2
 70
     6
  9
$SURFTYPE
 70
     6
  9
$SURFU
 70
     6
  9
$SURFV
 70
     6
  9
$UCSBASE
  2

  9
$UCSNAME
  2

  9
$UCSORG
 10
0.0
 20
0.0
 30
0.0
  9
$UCSXDIR
 10
1.0
 20
0.0
 30
0.0
  9
$UCSYDIR
 10
0.0
 20
1.0
 30
0.0
  9
$UCSORTHOREF
  2

  9
$UCSORTHOVIEW
 70
     0
  9
$UCSORGTOP
 10
0.0
 20
0.0
 30
0.0
  9
$UCSORGBOTTOM
 10
0.0
 20
0.0
 30
0.0
  9
$UCSORGLEFT
 10
0.0
 20
0.0
 30
0.0
  9
$UCSORGRIGHT
 10
0.0
 20
0.0
 30
0.0
  9
$UCSORGFRONT
 10
0.0
 20
0.0
 30
0.0
  9
$UCSORGBACK
 10
0.0
 20
0.0
 30
0.0
  9
$PUCSBASE
  2

  9
$PUCSNAME
  2

  9
$PUCSORG
 10
0.0
 20
0.0
 30
0.0
  9
$PUCSXDIR
 10
1.0
 20
0.0
 30
0.0
  9
$PUCSYDIR
 10
0.0
 20
1.0
 30
0.0
  9
$PUCSORTHOREF
  2

  9
$PUCSORTHOVIEW
 70
     0
  9
$PUCSORGTOP
 10
0.0
 20
0.0
 30
0.0
  9
$PUCSORGBOTTOM
 10
0.0
 20
0.0
 30
0.0
  9
$PUCSORGLEFT
 10
0.0
 20
0.0
 30
0.0
  9
$PUCSORGRIGHT
 10
0.0
 20
0.0
 30
0.0
  9
$PUCSORGFRONT
 10
0.0
 20
0.0
 30
0.0
  9
$PUCSORGBACK
 10
0.0
 20
0.0
 30
0.0
  9
$USERI1
 70
     0
  9
$USERI2
 70
     0
  9
$USERI3
 70
     0
  9
$USERI4
 70
     0
  9
$USERI5
 70
     0
  9
$USERR1
 40
0.0
  9
$USERR2
 40
0.0
  9
$USERR3
 40
0.0
  9
$USERR4
 40
0.0
  9
$USERR5
 40
0.0
  9
$WORLDVIEW
 70
     1
  9
$SHADEDGE
 70
     3
  9
$SHADEDIF
 70
    70
  9
$TILEMODE
 70
     1
  9
$MAXACTVP
 70
    64
  9
$PINSBASE
 10
0.0
 20
0.0
 30
0.0
  9
$PLIMCHECK
 70
     0
  9
$PEXTMIN
 10
1.000000000000000E+20
 20
1.000000000000000E+20
 30
1.000000000000000E+20
  9
$PEXTMAX
 10
-1.000000000000000E+20
 20
-1.000000000000000E+20
 30
-1.000000000000000E+20
  9
$PLIMMIN
 10
0.0
 20
0.0
  9
$PLIMMAX
 10
12.0
 20
9.0
  9
$UNITMODE
 70
     0
  9
$VISRETAIN
 70
     1
  9
$PLINEGEN
 70
     0
  9
$PSLTSCALE
 70
     1
  9
$TREEDEPTH
 70
  3020
  9
$CMLSTYLE
  2
Standard
  9
$CMLJUST
 70
     0
  9
$CMLSCALE
 40
1.0
  9
$PROXYGRAPHICS
 70
     1
  9
$MEASUREMENT
 70
     0
  9
$CELWEIGHT
370
    -1
  9
$ENDCAPS
280
     0
  9
$JOINSTYLE
280
     0
  9
$LWDISPLAY
290
     0
  9
$INSUNITS
 70
     4
  9
$HYPERLINKBASE
  1

  9
$STYLESHEET
  1

  9
$XEDIT
290
     1
  9
$CEPSNTYPE
380
     0
  9
$PSTYLEMODE
290
     1
  9
$FINGERPRINTGUID
  2
{23530D60-FA97-284B-8524-BC6084391C8F}
  9
$VERSIONGUID
  2
{5477B03E-0D7F-204D-B519-347A4CA00D9B}
  9
$EXTNAMES
290
     1
  9
$PSVPSCALE
 40
0.0
  9
$OLESTARTUP
290
     0
  9
$SORTENTS
280
   127
  9
$INDEXCTL
280
     0
  9
$HIDETEXT
280
     0
  9
$XCLIPFRAME
280
     2
  9
$HALOGAP
280
     0
  9
$OBSCOLOR
 70
   257
  9
$OBSLTYPE
280
     0
  9
$INTERSECTIONDISPLAY
280
     0
  9
$INTERSECTIONCOLOR
 70
   257
  9
$DIMASSOC
280
     1
  9
$PROJECTNAME
  1

  9
$CAMERADISPLAY
290
     0
  9
$LENSLENGTH
 40
50.0
  9
$CAMERAHEIGHT
 40
0.0
  9
$STEPSPERSEC
 40
2.0
  9
$STEPSIZE
 40
6.0
  9
$3DDWFPREC
 40
2.0
  9
$PSOLWIDTH
 40
0.25
  9
$PSOLHEIGHT
 40
4.0
  9
$LOFTANG1
 40
1.570796326794896
  9
$LOFTANG2
 40
1.570796326794896
  9
$LOFTMAG1
 40
0.0
  9
$LOFTMAG2
 40
0.0
  9
$LOFTPARAM
 70
     7
  9
$LOFTNORMALS
280
     1
  9
$LATITUDE
 40
37.795
  9
$LONGITUDE
 40
-122.394
  9
$NORTHDIRECTION
 40
0.0
  9
$TIMEZONE
 70
 -8000
  9
$LIGHTGLYPHDISPLAY
280
     1
  9
$TILEMODELIGHTSYNCH
280
     1
  9
$CMATERIAL
347
11
  9
$SOLIDHIST
280
     0
  9
$SHOWHIST
280
     1
  9
$DWFFRAME
280
     2
  9
$DGNFRAME
280
     0
  9
$REALWORLDSCALE
290
     1
  9
$INTERFERECOLOR
 62
     1
  9
$INTERFEREOBJVS
345
33
  9
$INTERFEREVPVS
346
30
  9
$CSHADOW
280
     0
  9
$SHADOWPLANELOCATION
 40
0.0
  0
ENDSEC
  0
SECTION
  2
CLASSES
  0
CLASS
  1
ACDBDICTIONARYWDFLT
  2
AcDbDictionaryWithDefault
  3
ObjectDBX Classes
 90
        0
 91
        1
280
     0
281
     0
  0
CLASS
  1
MATERIAL
  2
AcDbMaterial
  3
ObjectDBX Classes
 90
     1153
 91
        3
280
     0
281
     0
  0
CLASS
  1
VISUALSTYLE
  2
AcDbVisualStyle
  3
ObjectDBX Classes
 90
     4095
 91
       24
280
     0
281
     0
  0
CLASS
  1
SCALE
  2
AcDbScale
  3
ObjectDBX Classes
 90
     1153
 91
       17
280
     0
281
     0
  0
CLASS
  1
TABLESTYLE
  2
AcDbTableStyle
  3
ObjectDBX Classes
 90
     4095
 91
        1
280
     0
281
     0
  0
CLASS
  1
MLEADERSTYLE
  2
AcDbMLeaderStyle
  3
ACDB_MLEADERSTYLE_CLASS
 90
     4095
 91
        1
280
     0
281
     0
  0
CLASS
  1
ACDBSECTIONVIEWSTYLE
  2
AcDbSectionViewStyle
  3
ObjectDBX Classes
 90
     1025
 91
        1
280
     0
281
     0
  0
CLASS
  1
ACDBDETAILVIEWSTYLE
  2
AcDbDetailViewStyle
  3
ObjectDBX Classes
 90
     1025
 91
        1
280
     0
281
     0
  0
CLASS
  1
DICTIONARYVAR
  2
AcDbDictionaryVar
  3
ObjectDBX Classes
 90
        0
 91
        9
280
     0
281
     0
  0
CLASS
  1
CELLSTYLEMAP
  2
AcDbCellStyleMap
  3
ObjectDBX Classes
 90
     1152
 91
        1
280
     0
281
     0
  0
ENDSEC
  0
SECTION
  2
TABLES
  0
TABLE
  2
VPORT
  5
8
330
0
100
AcDbSymbolTable
 70
     1
  0
VPORT
  5
74
330
8
100
AcDbSymbolTableRecord
100
AcDbViewportTableRecord
  2
*Active
 70
     0
 10
0.0
 20
0.0
 11
1.0
 21
1.0
 12
807.0249366610189
 22
429.6797063626208
 13
0.0
 23
0.0
 14
1.0
 24
1.0
 15
0.0
 25
0.0
 16
0.0
 26
0.0
 36
1.0
 17
0.0
 27
0.0
 37
0.0
 40
1954.348186856752
 41
1.376842105263157
 42
50.0
 43
0.0
 44
0.0
 50
0.0
 51
0.0
 71
     0
 72
   100
 73
     1
 74
     1
 75
     0
 76
     0
 77
     0
 78
     0
281
     0
 65
     1
110
0.0
120
0.0
130
0.0
111
1.0
121
0.0
131
0.0
112
0.0
122
1.0
132
0.0
 79
     0
146
0.0
348
2F
 60
     3
 61
     5
292
     1
282
     1
141
0.0
142
0.0
 63
   250
421
  3355443
1001
ACAD_NAV_VCDISPLAY
1070
     3
  0
ENDTAB
  0
TABLE
  2
LTYPE
  5
5
330
0
100
AcDbSymbolTable
 70
     1
  0
LTYPE
  5
5A
330
5
100
AcDbSymbolTableRecord
100
AcDbLinetypeTableRecord
  2
ByBlock
 70
     0
  3

 72
    65
 73
     0
 40
0.0
  0
LTYPE
  5
5B
330
5
100
AcDbSymbolTableRecord
100
AcDbLinetypeTableRecord
  2
ByLayer
 70
     0
  3

 72
    65
 73
     0
 40
0.0
  0
LTYPE
  5
5C
330
5
100
AcDbSymbolTableRecord
100
AcDbLinetypeTableRecord
  2
CONTINUOUS
 70
     0
  3
______
 72
    65
 73
     0
 40
0.0
  0
ENDTAB
  0
TABLE
  2
LAYER
  5
2
102
{ACAD_XDICTIONARY
360
30E
102
}
330
0
100
AcDbSymbolTable
 70
     7
  0
LAYER
  5
54
102
{ACAD_XDICTIONARY
360
2FD
102
}
330
2
100
AcDbSymbolTableRecord
100
AcDbLayerTableRecord
  2
0
 70
     0
 62
     7
  6
CONTINUOUS
370
    -3
390
F
347
21
348
0
  0
LAYER
  5
75
102
{ACAD_XDICTIONARY
360
2FF
102
}
330
2
100
AcDbSymbolTableRecord
100
AcDbLayerTableRecord
  2
front_outsideCutPath
 70
     0
 62
     7
  6
CONTINUOUS
370
    -3
390
F
347
21
348
0
  0
LAYER
  5
A2
102
{ACAD_XDICTIONARY
360
301
102
}
330
2
100
AcDbSymbolTableRecord
100
AcDbLayerTableRecord
  2
left_outsideCutPath
 70
     0
 62
     7
  6
CONTINUOUS
370
    -3
390
F
347
21
348
0
  0
LAYER
  5
BF
102
{ACAD_XDICTIONARY
360
303
102
}
330
2
100
AcDbSymbolTableRecord
100
AcDbLayerTableRecord
  2
top_outsideCutPath
 70
     0
 62
     7
  6
CONTINUOUS
370
    -3
390
F
347
21
348
0
  0
LAYER
  5
F4
102
{ACAD_XDICTIONARY
360
305
102
}
330
2
100
AcDbSymbolTableRecord
100
AcDbLayerTableRecord
  2
back_outsideCutPath
 70
     0
 62
     7
  6
CONTINUOUS
370
    -3
390
F
347
21
348
0
  0
LAYER
  5
121
102
{ACAD_XDICTIONARY
360
307
102
}
330
2
100
AcDbSymbolTableRecord
100
AcDbLayerTableRecord
  2
right_outsideCutPath
 70
     0
 62
     7
  6
CONTINUOUS
370
    -3
390
F
347
21
348
0
  0
LAYER
  5
13E
102
{ACAD_XDICTIONARY
360
309
102
}
330
2
100
AcDbSymbolTableRecord
100
AcDbLayerTableRecord
  2
bottom_outsideCutPath
 70
     0
 62
     7
  6
CONTINUOUS
370
    -3
390
F
347
21
348
0
  0
ENDTAB
  0
TABLE
  2
STYLE
  5
3
330
0
100
AcDbSymbolTable
 70
     2
  0
STYLE
  5
55
330
3
100
AcDbSymbolTableRecord
100
AcDbTextStyleTableRecord
  2
Standard
 70
     0
 40
0.0
 41
1.0
 50
0.0
 71
     0
 42
0.2
  3
txt
  4

  0
STYLE
  5
59
330
3
100
AcDbSymbolTableRecord
100
AcDbTextStyleTableRecord
  2
Annotative
 70
     0
 40
0.0
 41
1.0
 50
0.0
 71
     0
 42
0.2
  3
txt
  4

1001
AcadAnnotative
1000
AnnotativeData
1002
{
1070
     1
1070
     1
1002
}
  0
ENDTAB
  0
TABLE
  2
VIEW
  5
6
330
0
100
AcDbSymbolTable
 70
     1
  0
ENDTAB
  0
TABLE
  2
UCS
  5
7
330
0
100
AcDbSymbolTable
 70
     0
  0
ENDTAB
  0
TABLE
  2
APPID
  5
9
330
0
100
AcDbSymbolTable
 70
     4
  0
APPID
  5
56
330
9
100
AcDbSymbolTableRecord
100
AcDbRegAppTableRecord
  2
ACAD
 70
     0
  0
APPID
  5
5D
330
9
100
AcDbSymbolTableRecord
100
AcDbRegAppTableRecord
  2
AcadAnnotative
 70
     0
  0
APPID
  5
175
330
9
100
AcDbSymbolTableRecord
100
AcDbRegAppTableRecord
  2
ACAD_EXEMPT_FROM_CAD_STANDARDS
 70
     0
  0
APPID
  5
17E
330
9
100
AcDbSymbolTableRecord
100
AcDbRegAppTableRecord
  2
ACAD_NAV_VCDISPLAY
 70
     0
  0
ENDTAB
  0
TABLE
  2
DIMSTYLE
  5
A
330
0
100
AcDbSymbolTable
 70
     2
100
AcDbDimStyleTable
 71
     1
340
57
  0
DIMSTYLE
105
57
330
A
100
AcDbSymbolTableRecord
100
AcDbDimStyleTableRecord
  2
Standard
 70
     0
340
55
  0
DIMSTYLE
105
58
330
A
100
AcDbSymbolTableRecord
100
AcDbDimStyleTableRecord
  2
Annotative
 70
     0
340
55
1001
AcadAnnotative
1000
AnnotativeData
1002
{
1070
     1
1070
     1
1002
}
  0
ENDTAB
  0
TABLE
  2
BLOCK_RECORD
  5
1
330
0
100
AcDbSymbolTable
 70
     1
  0
BLOCK_RECORD
  5
6F
330
1
100
AcDbSymbolTableRecord
100
AcDbBlockTableRecord
  2
*Model_Space
340
72
 70
     0
280
     1
281
     0
  0
BLOCK_RECORD
  5
6B
330
1
100
AcDbSymbolTableRecord
100
AcDbBlockTableRecord
  2
*Paper_Space
340
6E
 70
     0
280
     1
281
     0
  0
BLOCK_RECORD
  5
317
330
1
100
AcDbSymbolTableRecord
100
AcDbBlockTableRecord
  2
arena_with_sugar_hole
340
0
 70
     4
280
     1
281
     0
  0
ENDTAB
  0
ENDSEC
  0
SECTION
  2
BLOCKS
  0
BLOCK
  5
70
330
6F
100
AcDbEntity
  8
0
100
AcDbBlockBegin
  2
*Model_Space
 70
     0
 10
0.0
 20
0.0
 30
0.0
  3
*Model_Space
  1

  0
ENDBLK
  5
71
330
6F
100
AcDbEntity
  8
0
100
AcDbBlockEnd
  0
BLOCK
  5
6C
330
6B
100
AcDbEntity
 67
     1
  8
0
100
AcDbBlockBegin
  2
*Paper_Space
 70
     0
 10
0.0
 20
0.0
 30
0.0
  3
*Paper_Space
  1

  0
ENDBLK
  5
6D
330
6B
100
AcDbEntity
 67
     1
  8
0
100
AcDbBlockEnd
  0
BLOCK
  5
3B2
330
317
100
AcDbEntity
  8
0
100
AcDbBlockBegin
  2
arena_with_sugar_hole
 70
     0
 10
0.0
 20
0.0
 30
0.0
  3
arena_with_sugar_hole
  1

  0
LINE
  5
318
330
317
100
AcDbEntity
  8
back_outsideCutPath
100
AcDbLine
 10
27.51
 20
109.11
 30
0.0
 11
62.25
 21
109.11
 31
0.0
  0
LINE
  5
319
330
317
100
AcDbEntity
  8
back_outsideCutPath
100
AcDbLine
 10
62.25
 20
109.11
 30
0.0
 11
62.25
 21
106.36
 31
0.0
  0
LINE
  5
31A
330
317
100
AcDbEntity
  8
back_outsideCutPath
100
AcDbLine
 10
62.25
 20
106.36
 30
0.0
 11
97.71
 21
106.36
 31
0.0
  0
LINE
  5
31B
330
317
100
AcDbEntity
  8
back_outsideCutPath
100
AcDbLine
 10
97.71
 20
106.36
 30
0.0
 11
97.71
 21
109.11
 31
0.0
  0
LINE
  5
31C
330
317
100
AcDbEntity
  8
back_outsideCutPath
100
AcDbLine
 10
97.71
 20
109.11
 30
0.0
 11
132.45
 21
109.11
 31
0.0
  0
LINE
  5
31D
330
317
100
AcDbEntity
  8
back_outsideCutPath
100
AcDbLine
 10
132.45
 20
109.11
 30
0.0
 11
132.45
 21
106.36
 31
0.0
  0
LINE
  5
31E
330
317
100
AcDbEntity
  8
back_outsideCutPath
100
AcDbLine
 10
132.45
 20
106.36
 30
0.0
 11
167.91
 21
106.36
 31
0.0
  0
LINE
  5
31F
330
317
100
AcDbEntity
  8
back_outsideCutPath
100
AcDbLine
 10
167.91
 20
106.36
 30
0.0
 11
167.91
 21
109.11
 31
0.0
  0
LINE
  5
320
330
317
100
AcDbEntity
  8
back_outsideCutPath
100
AcDbLine
 10
167.91
 20
109.11
 30
0.0
 11
202.65
 21
109.11
 31
0.0
  0
LINE
  5
321
330
317
100
AcDbEntity
  8
back_outsideCutPath
100
AcDbLine
 10
202.65
 20
109.11
 30
0.0
 11
202.65
 21
106.36
 31
0.0
  0
LINE
  5
322
330
317
100
AcDbEntity
  8
back_outsideCutPath
100
AcDbLine
 10
202.65
 20
106.36
 30
0.0
 11
238.11
 21
106.36
 31
0.0
  0
LINE
  5
323
330
317
100
AcDbEntity
  8
back_outsideCutPath
100
AcDbLine
 10
238.11
 20
106.36
 30
0.0
 11
238.11
 21
109.11
 31
0.0
  0
LINE
  5
324
330
317
100
AcDbEntity
  8
back_outsideCutPath
100
AcDbLine
 10
238.11
 20
109.11
 30
0.0
 11
272.85
 21
109.11
 31
0.0
  0
LINE
  5
325
330
317
100
AcDbEntity
  8
back_outsideCutPath
100
AcDbLine
 10
272.85
 20
109.11
 30
0.0
 11
272.85
 21
106.36
 31
0.0
  0
LINE
  5
326
330
317
100
AcDbEntity
  8
back_outsideCutPath
100
AcDbLine
 10
272.85
 20
106.36
 30
0.0
 11
300.36
 21
106.36
 31
0.0
  0
LINE
  5
327
330
317
100
AcDbEntity
  8
back_outsideCutPath
100
AcDbLine
 10
300.36
 20
106.36
 30
0.0
 11
300.36
 21
139.17
 31
0.0
  0
LINE
  5
328
330
317
100
AcDbEntity
  8
back_outsideCutPath
100
AcDbLine
 10
300.36
 20
173.91
 30
0.0
 11
300.36
 21
206.72
 31
0.0
  0
LINE
  5
329
330
317
100
AcDbEntity
  8
back_outsideCutPath
100
AcDbLine
 10
300.36
 20
206.72
 30
0.0
 11
272.85
 21
206.72
 31
0.0
  0
LINE
  5
32A
330
317
100
AcDbEntity
  8
back_outsideCutPath
100
AcDbLine
 10
238.11
 20
206.72
 30
0.0
 11
202.65
 21
206.72
 31
0.0
  0
LINE
  5
32B
330
317
100
AcDbEntity
  8
back_outsideCutPath
100
AcDbLine
 10
202.65
 20
206.72
 30
0.0
 11
202.65
 21
203.97
 31
0.0
  0
LINE
  5
32C
330
317
100
AcDbEntity
  8
back_outsideCutPath
100
AcDbLine
 10
202.65
 20
203.97
 30
0.0
 11
167.91
 21
203.97
 31
0.0
  0
LINE
  5
32D
330
317
100
AcDbEntity
  8
back_outsideCutPath
100
AcDbLine
 10
132.45
 20
203.97
 30
0.0
 11
97.71
 21
203.97
 31
0.0
  0
LINE
  5
32E
330
317
100
AcDbEntity
  8
back_outsideCutPath
100
AcDbLine
 10
97.71
 20
203.97
 30
0.0
 11
97.71
 21
206.72
 31
0.0
  0
LINE
  5
32F
330
317
100
AcDbEntity
  8
back_outsideCutPath
100
AcDbLine
 10
97.71
 20
206.72
 30
0.0
 11
62.25
 21
206.72
 31
0.0
  0
LINE
  5
330
330
317
100
AcDbEntity
  8
back_outsideCutPath
100
AcDbLine
 10
27.51
 20
206.72
 30
0.0
 11
0.0
 21
206.72
 31
0.0
  0
LINE
  5
331
330
317
100
AcDbEntity
  8
back_outsideCutPath
100
AcDbLine
 10
0.0
 20
206.72
 30
0.0
 11
0.0
 21
173.91
 31
0.0
  0
LINE
  5
332
330
317
100
AcDbEntity
  8
back_outsideCutPath
100
AcDbLine
 10
0.0
 20
139.17
 30
0.0
 11
0.0
 21
106.36
 31
0.0
  0
LINE
  5
333
330
317
100
AcDbEntity
  8
back_outsideCutPath
100
AcDbLine
 10
0.0
 20
106.36
 30
0.0
 11
27.51
 21
106.36
 31
0.0
  0
LINE
  5
334
330
317
100
AcDbEntity
  8
back_outsideCutPath
100
AcDbLine
 10
27.51
 20
106.36
 30
0.0
 11
27.51
 21
109.11
 31
0.0
  0
LINE
  5
335
330
317
100
AcDbEntity
  8
0
  6
Continuous
100
AcDbLine
 10
300.36
 20
173.91
 30
0.0
 11
300.36
 21
139.17
 31
0.0
  0
LINE
  5
336
330
317
100
AcDbEntity
  8
0
  6
Continuous
100
AcDbLine
 10
0.0
 20
173.91
 30
0.0
 11
0.0
 21
139.17
 31
0.0
  0
CIRCLE
  5
337
330
317
100
AcDbEntity
  8
0
  6
Continuous
100
AcDbCircle
 10
150.18
 20
189.72
 30
0.0
 40
6.5
  0
LINE
  5
338
330
317
100
AcDbEntity
  8
0
  6
Continuous
100
AcDbLine
 10
27.51
 20
206.72
 30
0.0
 11
62.25
 21
206.72
 31
0.0
  0
LINE
  5
339
330
317
100
AcDbEntity
  8
0
  6
Continuous
100
AcDbLine
 10
132.45
 20
203.97
 30
0.0
 11
167.91
 21
203.97
 31
0.0
  0
LINE
  5
33A
330
317
100
AcDbEntity
  8
0
  6
Continuous
100
AcDbLine
 10
238.11
 20
206.72
 30
0.0
 11
272.85
 21
206.72
 31
0.0
  0
LINE
  5
33B
330
317
100
AcDbEntity
  8
back_outsideCutPath
100
AcDbLine
 10
27.79707911658603
 20
-1.252695514125662
 30
0.0
 11
62.53707911658603
 21
-1.252695514125662
 31
0.0
  0
LINE
  5
33C
330
317
100
AcDbEntity
  8
back_outsideCutPath
100
AcDbLine
 10
62.53707911658603
 20
-1.252695514125662
 30
0.0
 11
62.53707911658603
 21
-4.002695514125662
 31
0.0
  0
LINE
  5
33D
330
317
100
AcDbEntity
  8
back_outsideCutPath
100
AcDbLine
 10
62.53707911658603
 20
-4.002695514125662
 30
0.0
 11
97.99707911658602
 21
-4.002695514125662
 31
0.0
  0
LINE
  5
33E
330
317
100
AcDbEntity
  8
back_outsideCutPath
100
AcDbLine
 10
97.99707911658602
 20
-4.002695514125662
 30
0.0
 11
97.99707911658602
 21
-1.252695514125662
 31
0.0
  0
LINE
  5
33F
330
317
100
AcDbEntity
  8
back_outsideCutPath
100
AcDbLine
 10
97.99707911658602
 20
-1.252695514125662
 30
0.0
 11
132.737079116586
 21
-1.252695514125662
 31
0.0
  0
LINE
  5
340
330
317
100
AcDbEntity
  8
back_outsideCutPath
100
AcDbLine
 10
132.737079116586
 20
-1.252695514125662
 30
0.0
 11
132.737079116586
 21
-4.002695514125662
 31
0.0
  0
LINE
  5
341
330
317
100
AcDbEntity
  8
back_outsideCutPath
100
AcDbLine
 10
132.737079116586
 20
-4.002695514125662
 30
0.0
 11
168.197079116586
 21
-4.002695514125662
 31
0.0
  0
LINE
  5
342
330
317
100
AcDbEntity
  8
back_outsideCutPath
100
AcDbLine
 10
168.197079116586
 20
-4.002695514125662
 30
0.0
 11
168.197079116586
 21
-1.252695514125662
 31
0.0
  0
LINE
  5
343
330
317
100
AcDbEntity
  8
back_outsideCutPath
100
AcDbLine
 10
168.197079116586
 20
-1.252695514125662
 30
0.0
 11
202.937079116586
 21
-1.252695514125662
 31
0.0
  0
LINE
  5
344
330
317
100
AcDbEntity
  8
back_outsideCutPath
100
AcDbLine
 10
202.937079116586
 20
-1.252695514125662
 30
0.0
 11
202.937079116586
 21
-4.002695514125662
 31
0.0
  0
LINE
  5
345
330
317
100
AcDbEntity
  8
back_outsideCutPath
100
AcDbLine
 10
202.937079116586
 20
-4.002695514125662
 30
0.0
 11
238.397079116586
 21
-4.002695514125662
 31
0.0
  0
LINE
  5
346
330
317
100
AcDbEntity
  8
back_outsideCutPath
100
AcDbLine
 10
238.397079116586
 20
-4.002695514125662
 30
0.0
 11
238.397079116586
 21
-1.252695514125662
 31
0.0
  0
LINE
  5
347
330
317
100
AcDbEntity
  8
back_outsideCutPath
100
AcDbLine
 10
238.397079116586
 20
-1.252695514125662
 30
0.0
 11
273.137079116586
 21
-1.252695514125662
 31
0.0
  0
LINE
  5
348
330
317
100
AcDbEntity
  8
back_outsideCutPath
100
AcDbLine
 10
273.137079116586
 20
-1.252695514125662
 30
0.0
 11
273.137079116586
 21
-4.002695514125662
 31
0.0
  0
LINE
  5
349
330
317
100
AcDbEntity
  8
back_outsideCutPath
100
AcDbLine
 10
273.137079116586
 20
-4.002695514125662
 30
0.0
 11
300.6470791165861
 21
-4.002695514125662
 31
0.0
  0
LINE
  5
34A
330
317
100
AcDbEntity
  8
back_outsideCutPath
100
AcDbLine
 10
300.6470791165861
 20
-4.002695514125662
 30
0.0
 11
300.6470791165861
 21
28.80730448587433
 31
0.0
  0
LINE
  5
34B
330
317
100
AcDbEntity
  8
back_outsideCutPath
100
AcDbLine
 10
300.6470791165861
 20
63.54730448587432
 30
0.0
 11
300.6470791165861
 21
96.35730448587436
 31
0.0
  0
LINE
  5
34C
330
317
100
AcDbEntity
  8
back_outsideCutPath
100
AcDbLine
 10
300.6470791165861
 20
96.35730448587436
 30
0.0
 11
273.137079116586
 21
96.35730448587436
 31
0.0
  0
LINE
  5
34D
330
317
100
AcDbEntity
  8
back_outsideCutPath
100
AcDbLine
 10
238.397079116586
 20
96.35730448587436
 30
0.0
 11
202.937079116586
 21
96.35730448587436
 31
0.0
  0
LINE
  5
34E
330
317
100
AcDbEntity
  8
back_outsideCutPath
100
AcDbLine
 10
202.937079116586
 20
96.35730448587436
 30
0.0
 11
202.937079116586
 21
93.60730448587435
 31
0.0
  0
LINE
  5
34F
330
317
100
AcDbEntity
  8
back_outsideCutPath
100
AcDbLine
 10
202.937079116586
 20
93.60730448587435
 30
0.0
 11
168.197079116586
 21
93.60730448587435
 31
0.0
  0
LINE
  5
350
330
317
100
AcDbEntity
  8
back_outsideCutPath
100
AcDbLine
 10
132.737079116586
 20
93.60730448587435
 30
0.0
 11
97.99707911658602
 21
93.60730448587435
 31
0.0
  0
LINE
  5
351
330
317
100
AcDbEntity
  8
back_outsideCutPath
100
AcDbLine
 10
97.99707911658602
 20
93.60730448587435
 30
0.0
 11
97.99707911658602
 21
96.35730448587436
 31
0.0
  0
LINE
  5
352
330
317
100
AcDbEntity
  8
back_outsideCutPath
100
AcDbLine
 10
97.99707911658602
 20
96.35730448587436
 30
0.0
 11
62.53707911658603
 21
96.35730448587436
 31
0.0
  0
LINE
  5
353
330
317
100
AcDbEntity
  8
back_outsideCutPath
100
AcDbLine
 10
27.79707911658603
 20
96.35730448587436
 30
0.0
 11
0.2870791165860282
 21
96.35730448587436
 31
0.0
  0
LINE
  5
354
330
317
100
AcDbEntity
  8
back_outsideCutPath
100
AcDbLine
 10
0.2870791165860282
 20
96.35730448587436
 30
0.0
 11
0.2870791165860282
 21
63.54730448587432
 31
0.0
  0
LINE
  5
355
330
317
100
AcDbEntity
  8
back_outsideCutPath
100
AcDbLine
 10
0.2870791165860282
 20
28.80730448587433
 30
0.0
 11
0.2870791165860282
 21
-4.002695514125662
 31
0.0
  0
LINE
  5
356
330
317
100
AcDbEntity
  8
back_outsideCutPath
100
AcDbLine
 10
0.2870791165860282
 20
-4.002695514125662
 30
0.0
 11
27.79707911658603
 21
-4.002695514125662
 31
0.0
  0
LINE
  5
357
330
317
100
AcDbEntity
  8
back_outsideCutPath
100
AcDbLine
 10
27.79707911658603
 20
-4.002695514125662
 30
0.0
 11
27.79707911658603
 21
-1.252695514125662
 31
0.0
  0
LINE
  5
358
330
317
100
AcDbEntity
  8
0
  6
Continuous
100
AcDbLine
 10
300.6470791165861
 20
63.54730448587432
 30
0.0
 11
300.6470791165861
 21
28.80730448587433
 31
0.0
  0
LINE
  5
359
330
317
100
AcDbEntity
  8
0
  6
Continuous
100
AcDbLine
 10
0.2870791165860282
 20
63.54730448587432
 30
0.0
 11
0.2870791165860282
 21
28.80730448587433
 31
0.0
  0
CIRCLE
  5
35A
330
317
100
AcDbEntity
  8
0
  6
Continuous
100
AcDbCircle
 10
150.467079116586
 20
79.35730448587435
 30
0.0
 40
6.5
  0
LINE
  5
35B
330
317
100
AcDbEntity
  8
0
  6
Continuous
100
AcDbLine
 10
27.79707911658603
 20
96.35730448587436
 30
0.0
 11
62.53707911658603
 21
96.35730448587436
 31
0.0
  0
LINE
  5
35C
330
317
100
AcDbEntity
  8
0
  6
Continuous
100
AcDbLine
 10
132.737079116586
 20
93.60730448587435
 30
0.0
 11
168.197079116586
 21
93.60730448587435
 31
0.0
  0
LINE
  5
35D
330
317
100
AcDbEntity
  8
0
  6
Continuous
100
AcDbLine
 10
238.397079116586
 20
96.35730448587436
 30
0.0
 11
273.137079116586
 21
96.35730448587436
 31
0.0
  0
LINE
  5
35E
330
317
100
AcDbEntity
  8
top_outsideCutPath
100
AcDbLine
 10
63.01013994810579
 20
225.4223182918722
 30
0.0
 11
97.7501399481058
 21
225.4223182918722
 31
0.0
  0
LINE
  5
35F
330
317
100
AcDbEntity
  8
top_outsideCutPath
100
AcDbLine
 10
97.7501399481058
 20
225.4223182918722
 30
0.0
 11
97.7501399481058
 21
222.6723182918722
 31
0.0
  0
LINE
  5
360
330
317
100
AcDbEntity
  8
top_outsideCutPath
100
AcDbLine
 10
97.7501399481058
 20
222.6723182918722
 30
0.0
 11
133.2101399481057
 21
222.6723182918722
 31
0.0
  0
LINE
  5
361
330
317
100
AcDbEntity
  8
top_outsideCutPath
100
AcDbLine
 10
167.9501399481057
 20
222.6723182918722
 30
0.0
 11
203.4101399481058
 21
222.6723182918722
 31
0.0
  0
LINE
  5
362
330
317
100
AcDbEntity
  8
top_outsideCutPath
100
AcDbLine
 10
203.4101399481058
 20
222.6723182918722
 30
0.0
 11
203.4101399481058
 21
225.4223182918722
 31
0.0
  0
LINE
  5
363
330
317
100
AcDbEntity
  8
top_outsideCutPath
100
AcDbLine
 10
203.4101399481058
 20
225.4223182918722
 30
0.0
 11
238.1501399481058
 21
225.4223182918722
 31
0.0
  0
LINE
  5
364
330
317
100
AcDbEntity
  8
top_outsideCutPath
100
AcDbLine
 10
273.6101399481057
 20
225.4223182918722
 30
0.0
 11
298.0101399481058
 21
225.4223182918722
 31
0.0
  0
LINE
  5
365
330
317
100
AcDbEntity
  8
top_outsideCutPath
100
AcDbLine
 10
300.7601399481058
 20
270.0223182918723
 30
0.0
 11
300.7601399481058
 21
305.4823182918722
 31
0.0
  0
LINE
  5
366
330
317
100
AcDbEntity
  8
top_outsideCutPath
100
AcDbLine
 10
300.7601399481058
 20
340.2223182918722
 30
0.0
 11
300.7601399481058
 21
375.6823182918722
 31
0.0
  0
LINE
  5
367
330
317
100
AcDbEntity
  8
top_outsideCutPath
100
AcDbLine
 10
298.0101399481058
 20
420.2823182918721
 30
0.0
 11
273.6101399481057
 21
420.2823182918721
 31
0.0
  0
LINE
  5
368
330
317
100
AcDbEntity
  8
top_outsideCutPath
100
AcDbLine
 10
238.1501399481058
 20
420.2823182918721
 30
0.0
 11
203.4101399481058
 21
420.2823182918721
 31
0.0
  0
LINE
  5
369
330
317
100
AcDbEntity
  8
top_outsideCutPath
100
AcDbLine
 10
203.4101399481058
 20
420.2823182918721
 30
0.0
 11
203.4101399481058
 21
423.0323182918722
 31
0.0
  0
LINE
  5
36A
330
317
100
AcDbEntity
  8
top_outsideCutPath
100
AcDbLine
 10
203.4101399481058
 20
423.0323182918722
 30
0.0
 11
167.9501399481057
 21
423.0323182918722
 31
0.0
  0
LINE
  5
36B
330
317
100
AcDbEntity
  8
top_outsideCutPath
100
AcDbLine
 10
133.2101399481057
 20
423.0323182918722
 30
0.0
 11
97.7501399481058
 21
423.0323182918722
 31
0.0
  0
LINE
  5
36C
330
317
100
AcDbEntity
  8
top_outsideCutPath
100
AcDbLine
 10
97.7501399481058
 20
423.0323182918722
 30
0.0
 11
97.7501399481058
 21
420.2823182918721
 31
0.0
  0
LINE
  5
36D
330
317
100
AcDbEntity
  8
top_outsideCutPath
100
AcDbLine
 10
97.7501399481058
 20
420.2823182918721
 30
0.0
 11
63.01013994810579
 21
420.2823182918721
 31
0.0
  0
LINE
  5
36E
330
317
100
AcDbEntity
  8
top_outsideCutPath
100
AcDbLine
 10
27.55013994810577
 20
420.2823182918721
 30
0.0
 11
3.150139948105788
 21
420.2823182918721
 31
0.0
  0
LINE
  5
36F
330
317
100
AcDbEntity
  8
top_outsideCutPath
100
AcDbLine
 10
0.4001399481057888
 20
375.6823182918722
 30
0.0
 11
0.4001399481057888
 21
340.2223182918722
 31
0.0
  0
LINE
  5
370
330
317
100
AcDbEntity
  8
top_outsideCutPath
100
AcDbLine
 10
0.4001399481057888
 20
305.4823182918722
 30
0.0
 11
0.4001399481057888
 21
270.0223182918723
 31
0.0
  0
LINE
  5
371
330
317
100
AcDbEntity
  8
top_outsideCutPath
100
AcDbLine
 10
3.150139948105788
 20
225.4223182918722
 30
0.0
 11
27.55013994810577
 21
225.4223182918722
 31
0.0
  0
LINE
  5
372
330
317
100
AcDbEntity
  8
bottom_outsideCutPath
100
AcDbLine
 10
63.01013994810579
 20
428.7823182918721
 30
0.0
 11
97.7501399481058
 21
428.7823182918721
 31
0.0
  0
LINE
  5
373
330
317
100
AcDbEntity
  8
bottom_outsideCutPath
100
AcDbLine
 10
97.7501399481058
 20
428.7823182918721
 30
0.0
 11
97.7501399481058
 21
426.0323182918721
 31
0.0
  0
LINE
  5
374
330
317
100
AcDbEntity
  8
bottom_outsideCutPath
100
AcDbLine
 10
97.7501399481058
 20
426.0323182918721
 30
0.0
 11
133.2101399481057
 21
426.0323182918721
 31
0.0
  0
LINE
  5
375
330
317
100
AcDbEntity
  8
bottom_outsideCutPath
100
AcDbLine
 10
133.2101399481057
 20
426.0323182918721
 30
0.0
 11
133.2101399481057
 21
428.7823182918721
 31
0.0
  0
LINE
  5
376
330
317
100
AcDbEntity
  8
bottom_outsideCutPath
100
AcDbLine
 10
133.2101399481057
 20
428.7823182918721
 30
0.0
 11
167.9501399481057
 21
428.7823182918721
 31
0.0
  0
LINE
  5
377
330
317
100
AcDbEntity
  8
bottom_outsideCutPath
100
AcDbLine
 10
167.9501399481057
 20
428.7823182918721
 30
0.0
 11
167.9501399481057
 21
426.0323182918721
 31
0.0
  0
LINE
  5
378
330
317
100
AcDbEntity
  8
bottom_outsideCutPath
100
AcDbLine
 10
167.9501399481057
 20
426.0323182918721
 30
0.0
 11
203.4101399481058
 21
426.0323182918721
 31
0.0
  0
LINE
  5
379
330
317
100
AcDbEntity
  8
bottom_outsideCutPath
100
AcDbLine
 10
203.4101399481058
 20
426.0323182918721
 30
0.0
 11
203.4101399481058
 21
428.7823182918721
 31
0.0
  0
LINE
  5
37A
330
317
100
AcDbEntity
  8
bottom_outsideCutPath
100
AcDbLine
 10
203.4101399481058
 20
428.7823182918721
 30
0.0
 11
238.1501399481058
 21
428.7823182918721
 31
0.0
  0
LINE
  5
37B
330
317
100
AcDbEntity
  8
bottom_outsideCutPath
100
AcDbLine
 10
238.1501399481058
 20
428.7823182918721
 30
0.0
 11
238.1501399481058
 21
426.0323182918721
 31
0.0
  0
LINE
  5
37C
330
317
100
AcDbEntity
  8
bottom_outsideCutPath
100
AcDbLine
 10
238.1501399481058
 20
426.0323182918721
 30
0.0
 11
273.6101399481057
 21
426.0323182918721
 31
0.0
  0
LINE
  5
37D
330
317
100
AcDbEntity
  8
bottom_outsideCutPath
100
AcDbLine
 10
273.6101399481057
 20
426.0323182918721
 30
0.0
 11
273.6101399481057
 21
428.7823182918721
 31
0.0
  0
LINE
  5
37E
330
317
100
AcDbEntity
  8
bottom_outsideCutPath
100
AcDbLine
 10
273.6101399481057
 20
428.7823182918721
 30
0.0
 11
298.0101399481058
 21
428.7823182918721
 31
0.0
  0
LINE
  5
37F
330
317
100
AcDbEntity
  8
bottom_outsideCutPath
100
AcDbLine
 10
300.7601399481058
 20
473.3823182918722
 30
0.0
 11
300.7601399481058
 21
508.8423182918721
 31
0.0
  0
LINE
  5
380
330
317
100
AcDbEntity
  8
bottom_outsideCutPath
100
AcDbLine
 10
300.7601399481058
 20
543.5823182918722
 30
0.0
 11
300.7601399481058
 21
579.0423182918722
 31
0.0
  0
LINE
  5
381
330
317
100
AcDbEntity
  8
bottom_outsideCutPath
100
AcDbLine
 10
298.0101399481058
 20
623.6423182918722
 30
0.0
 11
273.6101399481057
 21
623.6423182918722
 31
0.0
  0
LINE
  5
382
330
317
100
AcDbEntity
  8
bottom_outsideCutPath
100
AcDbLine
 10
273.6101399481057
 20
623.6423182918722
 30
0.0
 11
273.6101399481057
 21
626.3923182918722
 31
0.0
  0
LINE
  5
383
330
317
100
AcDbEntity
  8
bottom_outsideCutPath
100
AcDbLine
 10
273.6101399481057
 20
626.3923182918722
 30
0.0
 11
238.1501399481058
 21
626.3923182918722
 31
0.0
  0
LINE
  5
384
330
317
100
AcDbEntity
  8
bottom_outsideCutPath
100
AcDbLine
 10
238.1501399481058
 20
626.3923182918722
 30
0.0
 11
238.1501399481058
 21
623.6423182918722
 31
0.0
  0
LINE
  5
385
330
317
100
AcDbEntity
  8
bottom_outsideCutPath
100
AcDbLine
 10
238.1501399481058
 20
623.6423182918722
 30
0.0
 11
203.4101399481058
 21
623.6423182918722
 31
0.0
  0
LINE
  5
386
330
317
100
AcDbEntity
  8
bottom_outsideCutPath
100
AcDbLine
 10
203.4101399481058
 20
623.6423182918722
 30
0.0
 11
203.4101399481058
 21
626.3923182918722
 31
0.0
  0
LINE
  5
387
330
317
100
AcDbEntity
  8
bottom_outsideCutPath
100
AcDbLine
 10
203.4101399481058
 20
626.3923182918722
 30
0.0
 11
167.9501399481057
 21
626.3923182918722
 31
0.0
  0
LINE
  5
388
330
317
100
AcDbEntity
  8
bottom_outsideCutPath
100
AcDbLine
 10
167.9501399481057
 20
626.3923182918722
 30
0.0
 11
167.9501399481057
 21
623.6423182918722
 31
0.0
  0
LINE
  5
389
330
317
100
AcDbEntity
  8
bottom_outsideCutPath
100
AcDbLine
 10
167.9501399481057
 20
623.6423182918722
 30
0.0
 11
133.2101399481057
 21
623.6423182918722
 31
0.0
  0
LINE
  5
38A
330
317
100
AcDbEntity
  8
bottom_outsideCutPath
100
AcDbLine
 10
133.2101399481057
 20
623.6423182918722
 30
0.0
 11
133.2101399481057
 21
626.3923182918722
 31
0.0
  0
LINE
  5
38B
330
317
100
AcDbEntity
  8
bottom_outsideCutPath
100
AcDbLine
 10
133.2101399481057
 20
626.3923182918722
 30
0.0
 11
97.7501399481058
 21
626.3923182918722
 31
0.0
  0
LINE
  5
38C
330
317
100
AcDbEntity
  8
bottom_outsideCutPath
100
AcDbLine
 10
97.7501399481058
 20
626.3923182918722
 30
0.0
 11
97.7501399481058
 21
623.6423182918722
 31
0.0
  0
LINE
  5
38D
330
317
100
AcDbEntity
  8
bottom_outsideCutPath
100
AcDbLine
 10
97.7501399481058
 20
623.6423182918722
 30
0.0
 11
63.01013994810579
 21
623.6423182918722
 31
0.0
  0
LINE
  5
38E
330
317
100
AcDbEntity
  8
bottom_outsideCutPath
100
AcDbLine
 10
63.01013994810579
 20
623.6423182918722
 30
0.0
 11
63.01013994810579
 21
626.3923182918722
 31
0.0
  0
LINE
  5
38F
330
317
100
AcDbEntity
  8
bottom_outsideCutPath
100
AcDbLine
 10
63.01013994810579
 20
626.3923182918722
 30
0.0
 11
27.55013994810577
 21
626.3923182918722
 31
0.0
  0
LINE
  5
390
330
317
100
AcDbEntity
  8
bottom_outsideCutPath
100
AcDbLine
 10
27.55013994810577
 20
626.3923182918722
 30
0.0
 11
27.55013994810577
 21
623.6423182918722
 31
0.0
  0
LINE
  5
391
330
317
100
AcDbEntity
  8
bottom_outsideCutPath
100
AcDbLine
 10
27.55013994810577
 20
623.6423182918722
 30
0.0
 11
3.150139948105788
 21
623.6423182918722
 31
0.0
  0
LINE
  5
392
330
317
100
AcDbEntity
  8
bottom_outsideCutPath
100
AcDbLine
 10
0.4001399481057888
 20
579.0423182918722
 30
0.0
 11
0.4001399481057888
 21
543.5823182918722
 31
0.0
  0
LINE
  5
393
330
317
100
AcDbEntity
  8
bottom_outsideCutPath
100
AcDbLine
 10
0.4001399481057888
 20
508.8423182918721
 30
0.0
 11
0.4001399481057888
 21
473.3823182918722
 31
0.0
  0
LINE
  5
394
330
317
100
AcDbEntity
  8
bottom_outsideCutPath
100
AcDbLine
 10
3.150139948105788
 20
428.7823182918721
 30
0.0
 11
27.55013994810577
 21
428.7823182918721
 31
0.0
  0
LINE
  5
395
330
317
100
AcDbEntity
  8
bottom_outsideCutPath
100
AcDbLine
 10
27.55013994810577
 20
428.7823182918721
 30
0.0
 11
27.55013994810577
 21
426.0323182918721
 31
0.0
  0
LINE
  5
396
330
317
100
AcDbEntity
  8
bottom_outsideCutPath
100
AcDbLine
 10
27.55013994810577
 20
426.0323182918721
 30
0.0
 11
63.01013994810579
 21
426.0323182918721
 31
0.0
  0
LINE
  5
397
330
317
100
AcDbEntity
  8
bottom_outsideCutPath
100
AcDbLine
 10
63.01013994810579
 20
426.0323182918721
 30
0.0
 11
63.01013994810579
 21
428.7823182918721
 31
0.0
  0
LINE
  5
398
330
317
100
AcDbEntity
  8
0
  6
Continuous
100
AcDbLine
 10
3.150139948105788
 20
420.2823182918721
 30
0.0
 11
0.4001399481058458
 21
420.2823182918721
 31
0.0
  0
LINE
  5
399
330
317
100
AcDbEntity
  8
0
  6
Continuous
100
AcDbLine
 10
3.150139948105788
 20
225.4223182918722
 30
0.0
 11
0.4001399481058458
 21
225.4223182918722
 31
0.0
  0
LINE
  5
39A
330
317
100
AcDbEntity
  8
0
  6
Continuous
100
AcDbLine
 10
0.4001399481057888
 20
375.6823182918722
 30
0.0
 11
0.4001399481057888
 21
420.2823182918721
 31
0.0
  0
LINE
  5
39B
330
317
100
AcDbEntity
  8
0
  6
Continuous
100
AcDbLine
 10
0.4001399481057888
 20
340.2223182918722
 30
0.0
 11
0.4001399481057888
 21
305.4823182918722
 31
0.0
  0
LINE
  5
39C
330
317
100
AcDbEntity
  8
0
  6
Continuous
100
AcDbLine
 10
0.4001399481057888
 20
270.0223182918723
 30
0.0
 11
0.4001399481057888
 21
225.4223182918722
 31
0.0
  0
LINE
  5
39D
330
317
100
AcDbEntity
  8
0
  6
Continuous
100
AcDbLine
 10
298.0101399481058
 20
420.2823182918721
 30
0.0
 11
300.7601399481058
 21
420.2823182918721
 31
0.0
  0
LINE
  5
39E
330
317
100
AcDbEntity
  8
0
  6
Continuous
100
AcDbLine
 10
298.0101399481058
 20
225.4223182918722
 30
0.0
 11
300.7601399481059
 21
225.4223182918722
 31
0.0
  0
LINE
  5
39F
330
317
100
AcDbEntity
  8
0
  6
Continuous
100
AcDbLine
 10
300.7601399481058
 20
375.6823182918722
 30
0.0
 11
300.7601399481058
 21
420.2823182918721
 31
0.0
  0
LINE
  5
3A0
330
317
100
AcDbEntity
  8
0
  6
Continuous
100
AcDbLine
 10
300.7601399481058
 20
340.2223182918722
 30
0.0
 11
300.7601399481058
 21
305.4823182918722
 31
0.0
  0
LINE
  5
3A1
330
317
100
AcDbEntity
  8
0
  6
Continuous
100
AcDbLine
 10
300.7601399481058
 20
270.0223182918723
 30
0.0
 11
300.7601399481058
 21
225.4223182918722
 31
0.0
  0
LINE
  5
3A2
330
317
100
AcDbEntity
  8
0
  6
Continuous
100
AcDbLine
 10
133.2101399481057
 20
423.0323182918722
 30
0.0
 11
167.9501399481057
 21
423.0323182918722
 31
0.0
  0
LINE
  5
3A3
330
317
100
AcDbEntity
  8
0
  6
Continuous
100
AcDbLine
 10
27.55013994810577
 20
420.2823182918721
 30
0.0
 11
63.01013994810579
 21
420.2823182918721
 31
0.0
  0
LINE
  5
3A4
330
317
100
AcDbEntity
  8
0
  6
Continuous
100
AcDbLine
 10
238.1501399481058
 20
420.2823182918721
 30
0.0
 11
273.6101399481057
 21
420.2823182918721
 31
0.0
  0
LINE
  5
3A5
330
317
100
AcDbEntity
  8
0
  6
Continuous
100
AcDbLine
 10
133.2101399481057
 20
222.6723182918722
 30
0.0
 11
167.9501399481057
 21
222.6723182918722
 31
0.0
  0
LINE
  5
3A6
330
317
100
AcDbEntity
  8
0
  6
Continuous
100
AcDbLine
 10
27.55013994810577
 20
225.4223182918722
 30
0.0
 11
63.01013994810579
 21
225.4223182918722
 31
0.0
  0
LINE
  5
3A7
330
317
100
AcDbEntity
  8
0
  6
Continuous
100
AcDbLine
 10
238.1501399481058
 20
225.4223182918722
 30
0.0
 11
273.6101399481057
 21
225.4223182918722
 31
0.0
  0
LINE
  5
3A8
330
317
100
AcDbEntity
  8
0
  6
Continuous
100
AcDbLine
 10
3.150139948105788
 20
623.6423182918722
 30
0.0
 11
0.4001399481057888
 21
623.6423182918722
 31
0.0
  0
LINE
  5
3A9
330
317
100
AcDbEntity
  8
0
  6
Continuous
100
AcDbLine
 10
3.150139948105788
 20
428.7823182918721
 30
0.0
 11
0.4001399481058458
 21
428.7823182918721
 31
0.0
  0
LINE
  5
3AA
330
317
100
AcDbEntity
  8
0
  6
Continuous
100
AcDbLine
 10
298.0101399481058
 20
623.6423182918722
 30
0.0
 11
300.7601399481057
 21
623.6423182918722
 31
0.0
  0
LINE
  5
3AB
330
317
100
AcDbEntity
  8
0
  6
Continuous
100
AcDbLine
 10
298.0101399481058
 20
428.7823182918721
 30
0.0
 11
300.7601399481058
 21
428.7823182918721
 31
0.0
  0
LINE
  5
3AC
330
317
100
AcDbEntity
  8
0
  6
Continuous
100
AcDbLine
 10
0.4001399481057888
 20
579.0423182918722
 30
0.0
 11
0.4001399481057888
 21
623.6423182918722
 31
0.0
  0
LINE
  5
3AD
330
317
100
AcDbEntity
  8
0
  6
Continuous
100
AcDbLine
 10
0.4001399481057888
 20
473.3823182918722
 30
0.0
 11
0.4001399481057888
 21
428.7823182918721
 31
0.0
  0
LINE
  5
3AE
330
317
100
AcDbEntity
  8
0
  6
Continuous
100
AcDbLine
 10
0.4001399481057888
 20
543.5823182918722
 30
0.0
 11
0.4001399481057888
 21
508.8423182918721
 31
0.0
  0
LINE
  5
3AF
330
317
100
AcDbEntity
  8
0
  6
Continuous
100
AcDbLine
 10
300.7601399481058
 20
579.0423182918722
 30
0.0
 11
300.7601399481058
 21
623.6423182918722
 31
0.0
  0
LINE
  5
3B0
330
317
100
AcDbEntity
  8
0
  6
Continuous
100
AcDbLine
 10
300.7601399481058
 20
473.3823182918722
 30
0.0
 11
300.7601399481058
 21
428.7823182918721
 31
0.0
  0
LINE
  5
3B1
330
317
100
AcDbEntity
  8
0
  6
Continuous
100
AcDbLine
 10
300.7601399481058
 20
543.5823182918722
 30
0.0
 11
300.7601399481058
 21
508.8423182918721
 31
0.0
  0
ENDBLK
  5
3B3
330
317
100
AcDbEntity
  8
0
100
AcDbBlockEnd
  0
ENDSEC
  0
SECTION
  2
ENTITIES
  0
LINE
  5
F5
330
6F
100
AcDbEntity
  8
back_outsideCutPath
100
AcDbLine
 10
27.51
 20
109.11
 30
0.0
 11
62.25
 21
109.11
 31
0.0
  0
LINE
  5
F6
330
6F
100
AcDbEntity
  8
back_outsideCutPath
100
AcDbLine
 10
62.25
 20
109.11
 30
0.0
 11
62.25
 21
106.36
 31
0.0
  0
LINE
  5
F7
330
6F
100
AcDbEntity
  8
back_outsideCutPath
100
AcDbLine
 10
62.25
 20
106.36
 30
0.0
 11
97.71
 21
106.36
 31
0.0
  0
LINE
  5
F8
330
6F
100
AcDbEntity
  8
back_outsideCutPath
100
AcDbLine
 10
97.71
 20
106.36
 30
0.0
 11
97.71
 21
109.11
 31
0.0
  0
LINE
  5
F9
330
6F
100
AcDbEntity
  8
back_outsideCutPath
100
AcDbLine
 10
97.71
 20
109.11
 30
0.0
 11
132.45
 21
109.11
 31
0.0
  0
LINE
  5
FA
330
6F
100
AcDbEntity
  8
back_outsideCutPath
100
AcDbLine
 10
132.45
 20
109.11
 30
0.0
 11
132.45
 21
106.36
 31
0.0
  0
LINE
  5
FB
330
6F
100
AcDbEntity
  8
back_outsideCutPath
100
AcDbLine
 10
132.45
 20
106.36
 30
0.0
 11
167.91
 21
106.36
 31
0.0
  0
LINE
  5
FC
330
6F
100
AcDbEntity
  8
back_outsideCutPath
100
AcDbLine
 10
167.91
 20
106.36
 30
0.0
 11
167.91
 21
109.11
 31
0.0
  0
LINE
  5
FD
330
6F
100
AcDbEntity
  8
back_outsideCutPath
100
AcDbLine
 10
167.91
 20
109.11
 30
0.0
 11
202.65
 21
109.11
 31
0.0
  0
LINE
  5
FE
330
6F
100
AcDbEntity
  8
back_outsideCutPath
100
AcDbLine
 10
202.65
 20
109.11
 30
0.0
 11
202.65
 21
106.36
 31
0.0
  0
LINE
  5
FF
330
6F
100
AcDbEntity
  8
back_outsideCutPath
100
AcDbLine
 10
202.65
 20
106.36
 30
0.0
 11
238.11
 21
106.36
 31
0.0
  0
LINE
  5
100
330
6F
100
AcDbEntity
  8
back_outsideCutPath
100
AcDbLine
 10
238.11
 20
106.36
 30
0.0
 11
238.11
 21
109.11
 31
0.0
  0
LINE
  5
101
330
6F
100
AcDbEntity
  8
back_outsideCutPath
100
AcDbLine
 10
238.11
 20
109.11
 30
0.0
 11
272.85
 21
109.11
 31
0.0
  0
LINE
  5
102
330
6F
100
AcDbEntity
  8
back_outsideCutPath
100
AcDbLine
 10
272.85
 20
109.11
 30
0.0
 11
272.85
 21
106.36
 31
0.0
  0
LINE
  5
103
330
6F
100
AcDbEntity
  8
back_outsideCutPath
100
AcDbLine
 10
272.85
 20
106.36
 30
0.0
 11
300.36
 21
106.36
 31
0.0
  0
LINE
  5
104
330
6F
100
AcDbEntity
  8
back_outsideCutPath
100
AcDbLine
 10
300.36
 20
106.36
 30
0.0
 11
300.36
 21
139.17
 31
0.0
  0
LINE
  5
108
330
6F
100
AcDbEntity
  8
back_outsideCutPath
100
AcDbLine
 10
300.36
 20
173.91
 30
0.0
 11
300.36
 21
206.72
 31
0.0
  0
LINE
  5
109
330
6F
100
AcDbEntity
  8
back_outsideCutPath
100
AcDbLine
 10
300.36
 20
206.72
 30
0.0
 11
272.85
 21
206.72
 31
0.0
  0
LINE
  5
10D
330
6F
100
AcDbEntity
  8
back_outsideCutPath
100
AcDbLine
 10
238.11
 20
206.72
 30
0.0
 11
202.65
 21
206.72
 31
0.0
  0
LINE
  5
10E
330
6F
100
AcDbEntity
  8
back_outsideCutPath
100
AcDbLine
 10
202.65
 20
206.72
 30
0.0
 11
202.65
 21
203.97
 31
0.0
  0
LINE
  5
10F
330
6F
100
AcDbEntity
  8
back_outsideCutPath
100
AcDbLine
 10
202.65
 20
203.97
 30
0.0
 11
167.91
 21
203.97
 31
0.0
  0
LINE
  5
113
330
6F
100
AcDbEntity
  8
back_outsideCutPath
100
AcDbLine
 10
132.45
 20
203.97
 30
0.0
 11
97.71
 21
203.97
 31
0.0
  0
LINE
  5
114
330
6F
100
AcDbEntity
  8
back_outsideCutPath
100
AcDbLine
 10
97.71
 20
203.97
 30
0.0
 11
97.71
 21
206.72
 31
0.0
  0
LINE
  5
115
330
6F
100
AcDbEntity
  8
back_outsideCutPath
100
AcDbLine
 10
97.71
 20
206.72
 30
0.0
 11
62.25
 21
206.72
 31
0.0
  0
LINE
  5
119
330
6F
100
AcDbEntity
  8
back_outsideCutPath
100
AcDbLine
 10
27.51
 20
206.72
 30
0.0
 11
0.0
 21
206.72
 31
0.0
  0
LINE
  5
11A
330
6F
100
AcDbEntity
  8
back_outsideCutPath
100
AcDbLine
 10
0.0
 20
206.72
 30
0.0
 11
0.0
 21
173.91
 31
0.0
  0
LINE
  5
11E
330
6F
100
AcDbEntity
  8
back_outsideCutPath
100
AcDbLine
 10
0.0
 20
139.17
 30
0.0
 11
0.0
 21
106.36
 31
0.0
  0
LINE
  5
11F
330
6F
100
AcDbEntity
  8
back_outsideCutPath
100
AcDbLine
 10
0.0
 20
106.36
 30
0.0
 11
27.51
 21
106.36
 31
0.0
  0
LINE
  5
120
330
6F
100
AcDbEntity
  8
back_outsideCutPath
100
AcDbLine
 10
27.51
 20
106.36
 30
0.0
 11
27.51
 21
109.11
 31
0.0
  0
LINE
  5
17C
330
6F
100
AcDbEntity
  8
0
  6
Continuous
100
AcDbLine
 10
300.36
 20
173.91
 30
0.0
 11
300.36
 21
139.17
 31
0.0
  0
LINE
  5
17D
330
6F
100
AcDbEntity
  8
0
  6
Continuous
100
AcDbLine
 10
0.0
 20
173.91
 30
0.0
 11
0.0
 21
139.17
 31
0.0
  0
CIRCLE
  5
1DF
330
6F
100
AcDbEntity
  8
0
  6
Continuous
100
AcDbCircle
 10
150.18
 20
189.72
 30
0.0
 40
6.5
  0
LINE
  5
1E0
330
6F
100
AcDbEntity
  8
0
  6
Continuous
100
AcDbLine
 10
27.51
 20
206.72
 30
0.0
 11
62.25
 21
206.72
 31
0.0
  0
LINE
  5
1E1
330
6F
100
AcDbEntity
  8
0
  6
Continuous
100
AcDbLine
 10
132.45
 20
203.97
 30
0.0
 11
167.91
 21
203.97
 31
0.0
  0
LINE
  5
1E2
330
6F
100
AcDbEntity
  8
0
  6
Continuous
100
AcDbLine
 10
238.11
 20
206.72
 30
0.0
 11
272.85
 21
206.72
 31
0.0
  0
LINE
  5
20A
330
6F
100
AcDbEntity
  8
back_outsideCutPath
100
AcDbLine
 10
27.79707911658603
 20
-1.252695514125662
 30
0.0
 11
62.53707911658603
 21
-1.252695514125662
 31
0.0
  0
LINE
  5
20B
330
6F
100
AcDbEntity
  8
back_outsideCutPath
100
AcDbLine
 10
62.53707911658603
 20
-1.252695514125662
 30
0.0
 11
62.53707911658603
 21
-4.002695514125662
 31
0.0
  0
LINE
  5
20C
330
6F
100
AcDbEntity
  8
back_outsideCutPath
100
AcDbLine
 10
62.53707911658603
 20
-4.002695514125662
 30
0.0
 11
97.99707911658602
 21
-4.002695514125662
 31
0.0
  0
LINE
  5
20D
330
6F
100
AcDbEntity
  8
back_outsideCutPath
100
AcDbLine
 10
97.99707911658602
 20
-4.002695514125662
 30
0.0
 11
97.99707911658602
 21
-1.252695514125662
 31
0.0
  0
LINE
  5
20E
330
6F
100
AcDbEntity
  8
back_outsideCutPath
100
AcDbLine
 10
97.99707911658602
 20
-1.252695514125662
 30
0.0
 11
132.737079116586
 21
-1.252695514125662
 31
0.0
  0
LINE
  5
20F
330
6F
100
AcDbEntity
  8
back_outsideCutPath
100
AcDbLine
 10
132.737079116586
 20
-1.252695514125662
 30
0.0
 11
132.737079116586
 21
-4.002695514125662
 31
0.0
  0
LINE
  5
210
330
6F
100
AcDbEntity
  8
back_outsideCutPath
100
AcDbLine
 10
132.737079116586
 20
-4.002695514125662
 30
0.0
 11
168.197079116586
 21
-4.002695514125662
 31
0.0
  0
LINE
  5
211
330
6F
100
AcDbEntity
  8
back_outsideCutPath
100
AcDbLine
 10
168.197079116586
 20
-4.002695514125662
 30
0.0
 11
168.197079116586
 21
-1.252695514125662
 31
0.0
  0
LINE
  5
212
330
6F
100
AcDbEntity
  8
back_outsideCutPath
100
AcDbLine
 10
168.197079116586
 20
-1.252695514125662
 30
0.0
 11
202.937079116586
 21
-1.252695514125662
 31
0.0
  0
LINE
  5
213
330
6F
100
AcDbEntity
  8
back_outsideCutPath
100
AcDbLine
 10
202.937079116586
 20
-1.252695514125662
 30
0.0
 11
202.937079116586
 21
-4.002695514125662
 31
0.0
  0
LINE
  5
214
330
6F
100
AcDbEntity
  8
back_outsideCutPath
100
AcDbLine
 10
202.937079116586
 20
-4.002695514125662
 30
0.0
 11
238.397079116586
 21
-4.002695514125662
 31
0.0
  0
LINE
  5
215
330
6F
100
AcDbEntity
  8
back_outsideCutPath
100
AcDbLine
 10
238.397079116586
 20
-4.002695514125662
 30
0.0
 11
238.397079116586
 21
-1.252695514125662
 31
0.0
  0
LINE
  5
216
330
6F
100
AcDbEntity
  8
back_outsideCutPath
100
AcDbLine
 10
238.397079116586
 20
-1.252695514125662
 30
0.0
 11
273.137079116586
 21
-1.252695514125662
 31
0.0
  0
LINE
  5
217
330
6F
100
AcDbEntity
  8
back_outsideCutPath
100
AcDbLine
 10
273.137079116586
 20
-1.252695514125662
 30
0.0
 11
273.137079116586
 21
-4.002695514125662
 31
0.0
  0
LINE
  5
218
330
6F
100
AcDbEntity
  8
back_outsideCutPath
100
AcDbLine
 10
273.137079116586
 20
-4.002695514125662
 30
0.0
 11
300.6470791165861
 21
-4.002695514125662
 31
0.0
  0
LINE
  5
219
330
6F
100
AcDbEntity
  8
back_outsideCutPath
100
AcDbLine
 10
300.6470791165861
 20
-4.002695514125662
 30
0.0
 11
300.6470791165861
 21
28.80730448587433
 31
0.0
  0
LINE
  5
21A
330
6F
100
AcDbEntity
  8
back_outsideCutPath
100
AcDbLine
 10
300.6470791165861
 20
63.54730448587433
 30
0.0
 11
300.6470791165861
 21
96.35730448587434
 31
0.0
  0
LINE
  5
21B
330
6F
100
AcDbEntity
  8
back_outsideCutPath
100
AcDbLine
 10
300.6470791165861
 20
96.35730448587434
 30
0.0
 11
273.137079116586
 21
96.35730448587434
 31
0.0
  0
LINE
  5
21C
330
6F
100
AcDbEntity
  8
back_outsideCutPath
100
AcDbLine
 10
238.397079116586
 20
96.35730448587434
 30
0.0
 11
202.937079116586
 21
96.35730448587434
 31
0.0
  0
LINE
  5
21D
330
6F
100
AcDbEntity
  8
back_outsideCutPath
100
AcDbLine
 10
202.937079116586
 20
96.35730448587434
 30
0.0
 11
202.937079116586
 21
93.60730448587434
 31
0.0
  0
LINE
  5
21E
330
6F
100
AcDbEntity
  8
back_outsideCutPath
100
AcDbLine
 10
202.937079116586
 20
93.60730448587434
 30
0.0
 11
168.197079116586
 21
93.60730448587434
 31
0.0
  0
LINE
  5
21F
330
6F
100
AcDbEntity
  8
back_outsideCutPath
100
AcDbLine
 10
132.737079116586
 20
93.60730448587434
 30
0.0
 11
97.99707911658602
 21
93.60730448587434
 31
0.0
  0
LINE
  5
220
330
6F
100
AcDbEntity
  8
back_outsideCutPath
100
AcDbLine
 10
97.99707911658602
 20
93.60730448587434
 30
0.0
 11
97.99707911658602
 21
96.35730448587434
 31
0.0
  0
LINE
  5
221
330
6F
100
AcDbEntity
  8
back_outsideCutPath
100
AcDbLine
 10
97.99707911658602
 20
96.35730448587434
 30
0.0
 11
62.53707911658603
 21
96.35730448587434
 31
0.0
  0
LINE
  5
222
330
6F
100
AcDbEntity
  8
back_outsideCutPath
100
AcDbLine
 10
27.79707911658603
 20
96.35730448587434
 30
0.0
 11
0.2870791165860282
 21
96.35730448587434
 31
0.0
  0
LINE
  5
223
330
6F
100
AcDbEntity
  8
back_outsideCutPath
100
AcDbLine
 10
0.2870791165860282
 20
96.35730448587434
 30
0.0
 11
0.2870791165860282
 21
63.54730448587433
 31
0.0
  0
LINE
  5
224
330
6F
100
AcDbEntity
  8
back_outsideCutPath
100
AcDbLine
 10
0.2870791165860282
 20
28.80730448587433
 30
0.0
 11
0.2870791165860282
 21
-4.002695514125662
 31
0.0
  0
LINE
  5
225
330
6F
100
AcDbEntity
  8
back_outsideCutPath
100
AcDbLine
 10
0.2870791165860282
 20
-4.002695514125662
 30
0.0
 11
27.79707911658603
 21
-4.002695514125662
 31
0.0
  0
LINE
  5
226
330
6F
100
AcDbEntity
  8
back_outsideCutPath
100
AcDbLine
 10
27.79707911658603
 20
-4.002695514125662
 30
0.0
 11
27.79707911658603
 21
-1.252695514125662
 31
0.0
  0
LINE
  5
227
330
6F
100
AcDbEntity
  8
0
  6
Continuous
100
AcDbLine
 10
300.6470791165861
 20
63.54730448587433
 30
0.0
 11
300.6470791165861
 21
28.80730448587433
 31
0.0
  0
LINE
  5
228
330
6F
100
AcDbEntity
  8
0
  6
Continuous
100
AcDbLine
 10
0.2870791165860282
 20
63.54730448587433
 30
0.0
 11
0.2870791165860282
 21
28.80730448587433
 31
0.0
  0
CIRCLE
  5
229
330
6F
100
AcDbEntity
  8
0
  6
Continuous
100
AcDbCircle
 10
150.467079116586
 20
79.35730448587434
 30
0.0
 40
6.5
  0
LINE
  5
22A
330
6F
100
AcDbEntity
  8
0
  6
Continuous
100
AcDbLine
 10
27.79707911658603
 20
96.35730448587434
 30
0.0
 11
62.53707911658603
 21
96.35730448587434
 31
0.0
  0
LINE
  5
22B
330
6F
100
AcDbEntity
  8
0
  6
Continuous
100
AcDbLine
 10
132.737079116586
 20
93.60730448587434
 30
0.0
 11
168.197079116586
 21
93.60730448587434
 31
0.0
  0
LINE
  5
22C
330
6F
100
AcDbEntity
  8
0
  6
Continuous
100
AcDbLine
 10
238.397079116586
 20
96.35730448587434
 30
0.0
 11
273.137079116586
 21
96.35730448587434
 31
0.0
  0
LINE
  5
2A9
330
6F
100
AcDbEntity
  8
top_outsideCutPath
100
AcDbLine
 10
63.0101399481058
 20
225.4223182918722
 30
0.0
 11
97.75013994810581
 21
225.4223182918722
 31
0.0
  0
LINE
  5
2AA
330
6F
100
AcDbEntity
  8
top_outsideCutPath
100
AcDbLine
 10
97.75013994810581
 20
225.4223182918722
 30
0.0
 11
97.75013994810581
 21
222.6723182918722
 31
0.0
  0
LINE
  5
2AB
330
6F
100
AcDbEntity
  8
top_outsideCutPath
100
AcDbLine
 10
97.75013994810581
 20
222.6723182918722
 30
0.0
 11
133.2101399481057
 21
222.6723182918722
 31
0.0
  0
LINE
  5
2AC
330
6F
100
AcDbEntity
  8
top_outsideCutPath
100
AcDbLine
 10
167.9501399481057
 20
222.6723182918722
 30
0.0
 11
203.4101399481058
 21
222.6723182918722
 31
0.0
  0
LINE
  5
2AD
330
6F
100
AcDbEntity
  8
top_outsideCutPath
100
AcDbLine
 10
203.4101399481058
 20
222.6723182918722
 30
0.0
 11
203.4101399481058
 21
225.4223182918722
 31
0.0
  0
LINE
  5
2AE
330
6F
100
AcDbEntity
  8
top_outsideCutPath
100
AcDbLine
 10
203.4101399481058
 20
225.4223182918722
 30
0.0
 11
238.1501399481058
 21
225.4223182918722
 31
0.0
  0
LINE
  5
2AF
330
6F
100
AcDbEntity
  8
top_outsideCutPath
100
AcDbLine
 10
273.6101399481057
 20
225.4223182918722
 30
0.0
 11
298.0101399481058
 21
225.4223182918722
 31
0.0
  0
LINE
  5
2B0
330
6F
100
AcDbEntity
  8
top_outsideCutPath
100
AcDbLine
 10
300.7601399481058
 20
270.0223182918723
 30
0.0
 11
300.7601399481058
 21
305.4823182918722
 31
0.0
  0
LINE
  5
2B1
330
6F
100
AcDbEntity
  8
top_outsideCutPath
100
AcDbLine
 10
300.7601399481058
 20
340.2223182918722
 30
0.0
 11
300.7601399481058
 21
375.6823182918722
 31
0.0
  0
LINE
  5
2B2
330
6F
100
AcDbEntity
  8
top_outsideCutPath
100
AcDbLine
 10
298.0101399481058
 20
420.2823182918722
 30
0.0
 11
273.6101399481057
 21
420.2823182918722
 31
0.0
  0
LINE
  5
2B3
330
6F
100
AcDbEntity
  8
top_outsideCutPath
100
AcDbLine
 10
238.1501399481058
 20
420.2823182918722
 30
0.0
 11
203.4101399481058
 21
420.2823182918722
 31
0.0
  0
LINE
  5
2B4
330
6F
100
AcDbEntity
  8
top_outsideCutPath
100
AcDbLine
 10
203.4101399481058
 20
420.2823182918722
 30
0.0
 11
203.4101399481058
 21
423.0323182918722
 31
0.0
  0
LINE
  5
2B5
330
6F
100
AcDbEntity
  8
top_outsideCutPath
100
AcDbLine
 10
203.4101399481058
 20
423.0323182918722
 30
0.0
 11
167.9501399481057
 21
423.0323182918722
 31
0.0
  0
LINE
  5
2B6
330
6F
100
AcDbEntity
  8
top_outsideCutPath
100
AcDbLine
 10
133.2101399481057
 20
423.0323182918722
 30
0.0
 11
97.75013994810581
 21
423.0323182918722
 31
0.0
  0
LINE
  5
2B7
330
6F
100
AcDbEntity
  8
top_outsideCutPath
100
AcDbLine
 10
97.75013994810581
 20
423.0323182918722
 30
0.0
 11
97.75013994810581
 21
420.2823182918722
 31
0.0
  0
LINE
  5
2B8
330
6F
100
AcDbEntity
  8
top_outsideCutPath
100
AcDbLine
 10
97.75013994810581
 20
420.2823182918722
 30
0.0
 11
63.0101399481058
 21
420.2823182918722
 31
0.0
  0
LINE
  5
2B9
330
6F
100
AcDbEntity
  8
top_outsideCutPath
100
AcDbLine
 10
27.55013994810577
 20
420.2823182918722
 30
0.0
 11
3.150139948105788
 21
420.2823182918722
 31
0.0
  0
LINE
  5
2BA
330
6F
100
AcDbEntity
  8
top_outsideCutPath
100
AcDbLine
 10
0.4001399481057888
 20
375.6823182918722
 30
0.0
 11
0.4001399481057888
 21
340.2223182918722
 31
0.0
  0
LINE
  5
2BB
330
6F
100
AcDbEntity
  8
top_outsideCutPath
100
AcDbLine
 10
0.4001399481057888
 20
305.4823182918722
 30
0.0
 11
0.4001399481057888
 21
270.0223182918723
 31
0.0
  0
LINE
  5
2BC
330
6F
100
AcDbEntity
  8
top_outsideCutPath
100
AcDbLine
 10
3.150139948105788
 20
225.4223182918722
 30
0.0
 11
27.55013994810577
 21
225.4223182918722
 31
0.0
  0
LINE
  5
2BD
330
6F
100
AcDbEntity
  8
bottom_outsideCutPath
100
AcDbLine
 10
63.0101399481058
 20
428.7823182918722
 30
0.0
 11
97.75013994810581
 21
428.7823182918722
 31
0.0
  0
LINE
  5
2BE
330
6F
100
AcDbEntity
  8
bottom_outsideCutPath
100
AcDbLine
 10
97.75013994810581
 20
428.7823182918722
 30
0.0
 11
97.75013994810581
 21
426.0323182918722
 31
0.0
  0
LINE
  5
2BF
330
6F
100
AcDbEntity
  8
bottom_outsideCutPath
100
AcDbLine
 10
97.75013994810581
 20
426.0323182918722
 30
0.0
 11
133.2101399481057
 21
426.0323182918722
 31
0.0
  0
LINE
  5
2C0
330
6F
100
AcDbEntity
  8
bottom_outsideCutPath
100
AcDbLine
 10
133.2101399481057
 20
426.0323182918722
 30
0.0
 11
133.2101399481057
 21
428.7823182918722
 31
0.0
  0
LINE
  5
2C1
330
6F
100
AcDbEntity
  8
bottom_outsideCutPath
100
AcDbLine
 10
133.2101399481057
 20
428.7823182918722
 30
0.0
 11
167.9501399481057
 21
428.7823182918722
 31
0.0
  0
LINE
  5
2C2
330
6F
100
AcDbEntity
  8
bottom_outsideCutPath
100
AcDbLine
 10
167.9501399481057
 20
428.7823182918722
 30
0.0
 11
167.9501399481057
 21
426.0323182918722
 31
0.0
  0
LINE
  5
2C3
330
6F
100
AcDbEntity
  8
bottom_outsideCutPath
100
AcDbLine
 10
167.9501399481057
 20
426.0323182918722
 30
0.0
 11
203.4101399481058
 21
426.0323182918722
 31
0.0
  0
LINE
  5
2C4
330
6F
100
AcDbEntity
  8
bottom_outsideCutPath
100
AcDbLine
 10
203.4101399481058
 20
426.0323182918722
 30
0.0
 11
203.4101399481058
 21
428.7823182918722
 31
0.0
  0
LINE
  5
2C5
330
6F
100
AcDbEntity
  8
bottom_outsideCutPath
100
AcDbLine
 10
203.4101399481058
 20
428.7823182918722
 30
0.0
 11
238.1501399481058
 21
428.7823182918722
 31
0.0
  0
LINE
  5
2C6
330
6F
100
AcDbEntity
  8
bottom_outsideCutPath
100
AcDbLine
 10
238.1501399481058
 20
428.7823182918722
 30
0.0
 11
238.1501399481058
 21
426.0323182918722
 31
0.0
  0
LINE
  5
2C7
330
6F
100
AcDbEntity
  8
bottom_outsideCutPath
100
AcDbLine
 10
238.1501399481058
 20
426.0323182918722
 30
0.0
 11
273.6101399481057
 21
426.0323182918722
 31
0.0
  0
LINE
  5
2C8
330
6F
100
AcDbEntity
  8
bottom_outsideCutPath
100
AcDbLine
 10
273.6101399481057
 20
426.0323182918722
 30
0.0
 11
273.6101399481057
 21
428.7823182918722
 31
0.0
  0
LINE
  5
2C9
330
6F
100
AcDbEntity
  8
bottom_outsideCutPath
100
AcDbLine
 10
273.6101399481057
 20
428.7823182918722
 30
0.0
 11
298.0101399481058
 21
428.7823182918722
 31
0.0
  0
LINE
  5
2CA
330
6F
100
AcDbEntity
  8
bottom_outsideCutPath
100
AcDbLine
 10
300.7601399481058
 20
473.3823182918722
 30
0.0
 11
300.7601399481058
 21
508.8423182918722
 31
0.0
  0
LINE
  5
2CB
330
6F
100
AcDbEntity
  8
bottom_outsideCutPath
100
AcDbLine
 10
300.7601399481058
 20
543.5823182918722
 30
0.0
 11
300.7601399481058
 21
579.0423182918722
 31
0.0
  0
LINE
  5
2CC
330
6F
100
AcDbEntity
  8
bottom_outsideCutPath
100
AcDbLine
 10
298.0101399481058
 20
623.6423182918722
 30
0.0
 11
273.6101399481057
 21
623.6423182918722
 31
0.0
  0
LINE
  5
2CD
330
6F
100
AcDbEntity
  8
bottom_outsideCutPath
100
AcDbLine
 10
273.6101399481057
 20
623.6423182918722
 30
0.0
 11
273.6101399481057
 21
626.3923182918722
 31
0.0
  0
LINE
  5
2CE
330
6F
100
AcDbEntity
  8
bottom_outsideCutPath
100
AcDbLine
 10
273.6101399481057
 20
626.3923182918722
 30
0.0
 11
238.1501399481058
 21
626.3923182918722
 31
0.0
  0
LINE
  5
2CF
330
6F
100
AcDbEntity
  8
bottom_outsideCutPath
100
AcDbLine
 10
238.1501399481058
 20
626.3923182918722
 30
0.0
 11
238.1501399481058
 21
623.6423182918722
 31
0.0
  0
LINE
  5
2D0
330
6F
100
AcDbEntity
  8
bottom_outsideCutPath
100
AcDbLine
 10
238.1501399481058
 20
623.6423182918722
 30
0.0
 11
203.4101399481058
 21
623.6423182918722
 31
0.0
  0
LINE
  5
2D1
330
6F
100
AcDbEntity
  8
bottom_outsideCutPath
100
AcDbLine
 10
203.4101399481058
 20
623.6423182918722
 30
0.0
 11
203.4101399481058
 21
626.3923182918722
 31
0.0
  0
LINE
  5
2D2
330
6F
100
AcDbEntity
  8
bottom_outsideCutPath
100
AcDbLine
 10
203.4101399481058
 20
626.3923182918722
 30
0.0
 11
167.9501399481057
 21
626.3923182918722
 31
0.0
  0
LINE
  5
2D3
330
6F
100
AcDbEntity
  8
bottom_outsideCutPath
100
AcDbLine
 10
167.9501399481057
 20
626.3923182918722
 30
0.0
 11
167.9501399481057
 21
623.6423182918722
 31
0.0
  0
LINE
  5
2D4
330
6F
100
AcDbEntity
  8
bottom_outsideCutPath
100
AcDbLine
 10
167.9501399481057
 20
623.6423182918722
 30
0.0
 11
133.2101399481057
 21
623.6423182918722
 31
0.0
  0
LINE
  5
2D5
330
6F
100
AcDbEntity
  8
bottom_outsideCutPath
100
AcDbLine
 10
133.2101399481057
 20
623.6423182918722
 30
0.0
 11
133.2101399481057
 21
626.3923182918722
 31
0.0
  0
LINE
  5
2D6
330
6F
100
AcDbEntity
  8
bottom_outsideCutPath
100
AcDbLine
 10
133.2101399481057
 20
626.3923182918722
 30
0.0
 11
97.75013994810581
 21
626.3923182918722
 31
0.0
  0
LINE
  5
2D7
330
6F
100
AcDbEntity
  8
bottom_outsideCutPath
100
AcDbLine
 10
97.75013994810581
 20
626.3923182918722
 30
0.0
 11
97.75013994810581
 21
623.6423182918722
 31
0.0
  0
LINE
  5
2D8
330
6F
100
AcDbEntity
  8
bottom_outsideCutPath
100
AcDbLine
 10
97.75013994810581
 20
623.6423182918722
 30
0.0
 11
63.0101399481058
 21
623.6423182918722
 31
0.0
  0
LINE
  5
2D9
330
6F
100
AcDbEntity
  8
bottom_outsideCutPath
100
AcDbLine
 10
63.0101399481058
 20
623.6423182918722
 30
0.0
 11
63.0101399481058
 21
626.3923182918722
 31
0.0
  0
LINE
  5
2DA
330
6F
100
AcDbEntity
  8
bottom_outsideCutPath
100
AcDbLine
 10
63.0101399481058
 20
626.3923182918722
 30
0.0
 11
27.55013994810577
 21
626.3923182918722
 31
0.0
  0
LINE
  5
2DB
330
6F
100
AcDbEntity
  8
bottom_outsideCutPath
100
AcDbLine
 10
27.55013994810577
 20
626.3923182918722
 30
0.0
 11
27.55013994810577
 21
623.6423182918722
 31
0.0
  0
LINE
  5
2DC
330
6F
100
AcDbEntity
  8
bottom_outsideCutPath
100
AcDbLine
 10
27.55013994810577
 20
623.6423182918722
 30
0.0
 11
3.150139948105788
 21
623.6423182918722
 31
0.0
  0
LINE
  5
2DD
330
6F
100
AcDbEntity
  8
bottom_outsideCutPath
100
AcDbLine
 10
0.4001399481057888
 20
579.0423182918722
 30
0.0
 11
0.4001399481057888
 21
543.5823182918722
 31
0.0
  0
LINE
  5
2DE
330
6F
100
AcDbEntity
  8
bottom_outsideCutPath
100
AcDbLine
 10
0.4001399481057888
 20
508.8423182918722
 30
0.0
 11
0.4001399481057888
 21
473.3823182918722
 31
0.0
  0
LINE
  5
2DF
330
6F
100
AcDbEntity
  8
bottom_outsideCutPath
100
AcDbLine
 10
3.150139948105788
 20
428.7823182918722
 30
0.0
 11
27.55013994810577
 21
428.7823182918722
 31
0.0
  0
LINE
  5
2E0
330
6F
100
AcDbEntity
  8
bottom_outsideCutPath
100
AcDbLine
 10
27.55013994810577
 20
428.7823182918722
 30
0.0
 11
27.55013994810577
 21
426.0323182918722
 31
0.0
  0
LINE
  5
2E1
330
6F
100
AcDbEntity
  8
bottom_outsideCutPath
100
AcDbLine
 10
27.55013994810577
 20
426.0323182918722
 30
0.0
 11
63.0101399481058
 21
426.0323182918722
 31
0.0
  0
LINE
  5
2E2
330
6F
100
AcDbEntity
  8
bottom_outsideCutPath
100
AcDbLine
 10
63.0101399481058
 20
426.0323182918722
 30
0.0
 11
63.0101399481058
 21
428.7823182918722
 31
0.0
  0
LINE
  5
2E3
330
6F
100
AcDbEntity
  8
0
  6
Continuous
100
AcDbLine
 10
3.150139948105788
 20
420.2823182918722
 30
0.0
 11
0.4001399481058457
 21
420.2823182918722
 31
0.0
  0
LINE
  5
2E4
330
6F
100
AcDbEntity
  8
0
  6
Continuous
100
AcDbLine
 10
3.150139948105788
 20
225.4223182918722
 30
0.0
 11
0.4001399481058457
 21
225.4223182918722
 31
0.0
  0
LINE
  5
2E5
330
6F
100
AcDbEntity
  8
0
  6
Continuous
100
AcDbLine
 10
0.4001399481057888
 20
375.6823182918722
 30
0.0
 11
0.4001399481057888
 21
420.2823182918722
 31
0.0
  0
LINE
  5
2E6
330
6F
100
AcDbEntity
  8
0
  6
Continuous
100
AcDbLine
 10
0.4001399481057888
 20
340.2223182918722
 30
0.0
 11
0.4001399481057888
 21
305.4823182918722
 31
0.0
  0
LINE
  5
2E7
330
6F
100
AcDbEntity
  8
0
  6
Continuous
100
AcDbLine
 10
0.4001399481057888
 20
270.0223182918723
 30
0.0
 11
0.4001399481057888
 21
225.4223182918722
 31
0.0
  0
LINE
  5
2E8
330
6F
100
AcDbEntity
  8
0
  6
Continuous
100
AcDbLine
 10
298.0101399481058
 20
420.2823182918722
 30
0.0
 11
300.7601399481058
 21
420.2823182918722
 31
0.0
  0
LINE
  5
2E9
330
6F
100
AcDbEntity
  8
0
  6
Continuous
100
AcDbLine
 10
298.0101399481058
 20
225.4223182918722
 30
0.0
 11
300.7601399481059
 21
225.4223182918722
 31
0.0
  0
LINE
  5
2EA
330
6F
100
AcDbEntity
  8
0
  6
Continuous
100
AcDbLine
 10
300.7601399481058
 20
375.6823182918722
 30
0.0
 11
300.7601399481058
 21
420.2823182918722
 31
0.0
  0
LINE
  5
2EB
330
6F
100
AcDbEntity
  8
0
  6
Continuous
100
AcDbLine
 10
300.7601399481058
 20
340.2223182918722
 30
0.0
 11
300.7601399481058
 21
305.4823182918722
 31
0.0
  0
LINE
  5
2EC
330
6F
100
AcDbEntity
  8
0
  6
Continuous
100
AcDbLine
 10
300.7601399481058
 20
270.0223182918723
 30
0.0
 11
300.7601399481058
 21
225.4223182918722
 31
0.0
  0
LINE
  5
2ED
330
6F
100
AcDbEntity
  8
0
  6
Continuous
100
AcDbLine
 10
133.2101399481057
 20
423.0323182918722
 30
0.0
 11
167.9501399481057
 21
423.0323182918722
 31
0.0
  0
LINE
  5
2EE
330
6F
100
AcDbEntity
  8
0
  6
Continuous
100
AcDbLine
 10
27.55013994810577
 20
420.2823182918722
 30
0.0
 11
63.0101399481058
 21
420.2823182918722
 31
0.0
  0
LINE
  5
2EF
330
6F
100
AcDbEntity
  8
0
  6
Continuous
100
AcDbLine
 10
238.1501399481058
 20
420.2823182918722
 30
0.0
 11
273.6101399481057
 21
420.2823182918722
 31
0.0
  0
LINE
  5
2F0
330
6F
100
AcDbEntity
  8
0
  6
Continuous
100
AcDbLine
 10
133.2101399481057
 20
222.6723182918722
 30
0.0
 11
167.9501399481057
 21
222.6723182918722
 31
0.0
  0
LINE
  5
2F1
330
6F
100
AcDbEntity
  8
0
  6
Continuous
100
AcDbLine
 10
27.55013994810577
 20
225.4223182918722
 30
0.0
 11
63.0101399481058
 21
225.4223182918722
 31
0.0
  0
LINE
  5
2F2
330
6F
100
AcDbEntity
  8
0
  6
Continuous
100
AcDbLine
 10
238.1501399481058
 20
225.4223182918722
 30
0.0
 11
273.6101399481057
 21
225.4223182918722
 31
0.0
  0
LINE
  5
2F3
330
6F
100
AcDbEntity
  8
0
  6
Continuous
100
AcDbLine
 10
3.150139948105788
 20
623.6423182918722
 30
0.0
 11
0.4001399481057888
 21
623.6423182918722
 31
0.0
  0
LINE
  5
2F4
330
6F
100
AcDbEntity
  8
0
  6
Continuous
100
AcDbLine
 10
3.150139948105788
 20
428.7823182918722
 30
0.0
 11
0.4001399481058457
 21
428.7823182918722
 31
0.0
  0
LINE
  5
2F5
330
6F
100
AcDbEntity
  8
0
  6
Continuous
100
AcDbLine
 10
298.0101399481058
 20
623.6423182918722
 30
0.0
 11
300.7601399481057
 21
623.6423182918722
 31
0.0
  0
LINE
  5
2F6
330
6F
100
AcDbEntity
  8
0
  6
Continuous
100
AcDbLine
 10
298.0101399481058
 20
428.7823182918722
 30
0.0
 11
300.7601399481058
 21
428.7823182918722
 31
0.0
  0
LINE
  5
2F7
330
6F
100
AcDbEntity
  8
0
  6
Continuous
100
AcDbLine
 10
0.4001399481057888
 20
579.0423182918722
 30
0.0
 11
0.4001399481057888
 21
623.6423182918722
 31
0.0
  0
LINE
  5
2F8
330
6F
100
AcDbEntity
  8
0
  6
Continuous
100
AcDbLine
 10
0.4001399481057888
 20
473.3823182918722
 30
0.0
 11
0.4001399481057888
 21
428.7823182918722
 31
0.0
  0
LINE
  5
2F9
330
6F
100
AcDbEntity
  8
0
  6
Continuous
100
AcDbLine
 10
0.4001399481057888
 20
543.5823182918722
 30
0.0
 11
0.4001399481057888
 21
508.8423182918722
 31
0.0
  0
LINE
  5
2FA
330
6F
100
AcDbEntity
  8
0
  6
Continuous
100
AcDbLine
 10
300.7601399481058
 20
579.0423182918722
 30
0.0
 11
300.7601399481058
 21
623.6423182918722
 31
0.0
  0
LINE
  5
2FB
330
6F
100
AcDbEntity
  8
0
  6
Continuous
100
AcDbLine
 10
300.7601399481058
 20
473.3823182918722
 30
0.0
 11
300.7601399481058
 21
428.7823182918722
 31
0.0
  0
LINE
  5
2FC
330
6F
100
AcDbEntity
  8
0
  6
Continuous
100
AcDbLine
 10
300.7601399481058
 20
543.5823182918722
 30
0.0
 11
300.7601399481058
 21
508.8423182918722
 31
0.0
  0
ENDSEC
  0
SECTION
  2
OBJECTS
  0
DICTIONARY
  5
C
330
0
100
AcDbDictionary
281
     1
  3
ACAD_CIP_PREVIOUS_PRODUCT_INFO
350
174
  3
ACAD_COLOR
350
62
  3
ACAD_DETAILVIEWSTYLE
350
69
  3
ACAD_GROUP
350
D
  3
ACAD_LAYOUT
350
61
  3
ACAD_MATERIAL
350
10
  3
ACAD_MLEADERSTYLE
350
65
  3
ACAD_MLINESTYLE
350
5E
  3
ACAD_PLOTSETTINGS
350
60
  3
ACAD_PLOTSTYLENAME
350
E
  3
ACAD_SCALELIST
350
42
  3
ACAD_SECTIONVIEWSTYLE
350
67
  3
ACAD_TABLESTYLE
350
63
  3
ACAD_VISUALSTYLE
350
29
  3
ACDB_RECOMPOSE_DATA
350
3D3
  3
AcDbVariableDictionary
350
17F
  0
DICTIONARY
  5
30E
330
2
100
AcDbDictionary
280
     1
281
     1
  3
ACAD_LAYERSTATES
360
30F
  0
DICTIONARY
  5
2FD
330
54
100
AcDbDictionary
280
     1
281
     1
  3
ADSK_XREC_LAYER_RECONCILED
360
2FE
  0
DICTIONARY
  5
2FF
330
75
100
AcDbDictionary
280
     1
281
     1
  3
ADSK_XREC_LAYER_RECONCILED
360
300
  0
DICTIONARY
  5
301
330
A2
100
AcDbDictionary
280
     1
281
     1
  3
ADSK_XREC_LAYER_RECONCILED
360
302
  0
DICTIONARY
  5
303
330
BF
100
AcDbDictionary
280
     1
281
     1
  3
ADSK_XREC_LAYER_RECONCILED
360
304
  0
DICTIONARY
  5
305
330
F4
100
AcDbDictionary
280
     1
281
     1
  3
ADSK_XREC_LAYER_RECONCILED
360
306
  0
DICTIONARY
  5
307
330
121
100
AcDbDictionary
280
     1
281
     1
  3
ADSK_XREC_LAYER_RECONCILED
360
308
  0
DICTIONARY
  5
309
330
13E
100
AcDbDictionary
280
     1
281
     1
  3
ADSK_XREC_LAYER_RECONCILED
360
30A
  0
XRECORD
  5
174
102
{ACAD_REACTORS
330
C
102
}
330
C
100
AcDbXrecord
280
     1
300
ACDMAC
300
2024
300

  0
DICTIONARY
  5
62
102
{ACAD_REACTORS
330
C
102
}
330
C
100
AcDbDictionary
281
     1
  0
DICTIONARY
  5
69
102
{ACAD_REACTORS
330
C
102
}
330
C
100
AcDbDictionary
281
     1
  3
Imperial24
350
6A
  0
DICTIONARY
  5
D
102
{ACAD_REACTORS
330
C
102
}
330
C
100
AcDbDictionary
281
     1
  0
DICTIONARY
  5
61
102
{ACAD_REACTORS
330
C
102
}
330
C
100
AcDbDictionary
281
     1
  3
Layout1
350
6E
  3
Model
350
72
  0
DICTIONARY
  5
10
102
{ACAD_REACTORS
330
C
102
}
330
C
100
AcDbDictionary
281
     1
  3
ByBlock
350
19
  3
ByLayer
350
11
  3
Global
350
21
  0
DICTIONARY
  5
65
102
{ACAD_REACTORS
330
C
102
}
330
C
100
AcDbDictionary
281
     1
  3
Standard
350
66
  0
DICTIONARY
  5
5E
102
{ACAD_REACTORS
330
C
102
}
330
C
100
AcDbDictionary
281
     1
  3
Standard
350
5F
  0
DICTIONARY
  5
60
102
{ACAD_REACTORS
330
C
102
}
330
C
100
AcDbDictionary
281
     1
  0
ACDBDICTIONARYWDFLT
  5
E
102
{ACAD_REACTORS
330
C
102
}
330
C
100
AcDbDictionary
281
     1
  3
Normal
350
F
100
AcDbDictionaryWithDefault
340
F
  0
DICTIONARY
  5
42
102
{ACAD_REACTORS
330
C
102
}
330
C
100
AcDbDictionary
281
     1
  3
A0
350
43
  3
A1
350
44
  3
A2
350
45
  3
A3
350
46
  3
A4
350
47
  3
A5
350
48
  3
A6
350
49
  3
A7
350
4A
  3
A8
350
4B
  3
A9
350
4C
  3
B0
350
4D
  3
B1
350
4E
  3
B2
350
4F
  3
B3
350
50
  3
B4
350
51
  3
B5
350
52
  3
B6
350
53
  0
DICTIONARY
  5
67
102
{ACAD_REACTORS
330
C
102
}
330
C
100
AcDbDictionary
281
     1
  3
Imperial24
350
68
  0
DICTIONARY
  5
63
102
{ACAD_REACTORS
330
C
102
}
330
C
100
AcDbDictionary
281
     1
  3
Standard
350
64
  0
DICTIONARY
  5
29
102
{ACAD_REACTORS
330
C
102
}
330
C
100
AcDbDictionary
281
     1
  3
2dWireframe
350
2F
  3
Basic
350
2E
  3
Brighten
350
35
  3
ColorChange
350
39
  3
Conceptual
350
32
  3
Dim
350
34
  3
EdgeColorOff
350
41
  3
Facepattern
350
38
  3
Flat
350
2A
  3
FlatWithEdges
350
2B
  3
Gouraud
350
2C
  3
GouraudWithEdges
350
2D
  3
Hidden
350
31
  3
JitterOff
350
3F
  3
Linepattern
350
37
  3
OverhangOff
350
40
  3
Realistic
350
33
  3
Shaded
350
3E
  3
Shaded with edges
350
3D
  3
Shades of Gray
350
3A
  3
Sketchy
350
3B
  3
Thicken
350
36
  3
Wireframe
350
30
  3
X-Ray
350
3C
  0
XRECORD
  5
3D3
102
{ACAD_REACTORS
330
C
102
}
330
C
100
AcDbXrecord
280
     1
 90
        1
330
64
  0
DICTIONARY
  5
17F
102
{ACAD_REACTORS
330
C
102
}
330
C
100
AcDbDictionary
281
     1
  3
CANNOSCALE
350
185
  3
CMLEADERSTYLE
350
181
  3
CTABLESTYLE
350
180
  3
CVIEWDETAILSTYLE
350
182
  3
CVIEWSECTIONSTYLE
350
183
  3
LAYEREVAL
350
187
  3
LAYERNOTIFY
350
188
  3
LIGHTINGUNITS
350
186
  3
MSLTSCALE
350
184
  0
DICTIONARY
  5
30F
102
{ACAD_REACTORS
330
30E
102
}
330
30E
100
AcDbDictionary
281
     1
  0
XRECORD
  5
2FE
102
{ACAD_REACTORS
330
2FD
102
}
330
2FD
100
AcDbXrecord
280
     1
290
     1
  0
XRECORD
  5
300
102
{ACAD_REACTORS
330
2FF
102
}
330
2FF
100
AcDbXrecord
280
     1
290
     1
  0
XRECORD
  5
302
102
{ACAD_REACTORS
330
301
102
}
330
301
100
AcDbXrecord
280
     1
290
     1
  0
XRECORD
  5
304
102
{ACAD_REACTORS
330
303
102
}
330
303
100
AcDbXrecord
280
     1
290
     1
  0
XRECORD
  5
306
102
{ACAD_REACTORS
330
305
102
}
330
305
100
AcDbXrecord
280
     1
290
     1
  0
XRECORD
  5
308
102
{ACAD_REACTORS
330
307
102
}
330
307
100
AcDbXrecord
280
     1
290
     1
  0
XRECORD
  5
30A
102
{ACAD_REACTORS
330
309
102
}
330
309
100
AcDbXrecord
280
     1
290
     1
  0
ACDBDETAILVIEWSTYLE
  5
6A
102
{ACAD_REACTORS
330
69
102
}
330
69
100
AcDbModelDocViewStyle
 70
     0
  3
Imperial24
290
     0
300
Imperial24
 90
        0
100
AcDbDetailViewStyle
 70
     0
 71
     0
 90
        3
 71
     1
340
55
 62
   256
 40
0.24
340
0
 62
   256
 40
0.24
300

 40
0.36
280
     3
 71
     2
340
5C
 90
       25
 62
   256
 71
     3
340
55
 62
   256
 40
0.24
 90
        1
 40
0.75
 90
        1
300
%<\AcVar ViewType \f "%tc1">% %<\AcVar ViewDetailId>%\PSCALE %<\AcVar ViewScale \f "%sn">%
 71
     4
340
5C
 90
       25
 62
   256
340
5C
 90
       25
 62
   256
280
     0
  0
LAYOUT
  5
6E
102
{ACAD_REACTORS
330
61
102
}
330
61
100
AcDbPlotSettings
  1

  2

  4

  6

 40
0.0
 41
0.0
 42
0.0
 43
0.0
 44
0.0
 45
0.0
 46
0.0
 47
0.0
 48
0.0
 49
0.0
140
0.0
141
0.0
142
1.0
143
1.0
 70
   688
 72
     0
 73
     0
 74
     5
  7

 75
    16
147
1.0
 76
     0
 77
     2
 78
   300
148
0.0
149
0.0
100
AcDbLayout
  1
Layout1
 70
     1
 71
     1
 10
0.0
 20
0.0
 11
12.0
 21
9.0
 12
0.0
 22
0.0
 32
0.0
 14
1.000000000000000E+20
 24
1.000000000000000E+20
 34
1.000000000000000E+20
 15
-1.000000000000000E+20
 25
-1.000000000000000E+20
 35
-1.000000000000000E+20
146
0.0
 13
0.0
 23
0.0
 33
0.0
 16
1.0
 26
0.0
 36
0.0
 17
0.0
 27
1.0
 37
0.0
 76
     0
330
6B
  0
LAYOUT
  5
72
102
{ACAD_REACTORS
330
61
102
}
330
61
100
AcDbPlotSettings
  1

  2

  4

  6

 40
0.0
 41
0.0
 42
0.0
 43
0.0
 44
0.0
 45
0.0
 46
0.0
 47
0.0
 48
0.0
 49
0.0
140
0.0
141
0.0
142
1.0
143
1.0
 70
  1712
 72
     0
 73
     0
 74
     0
  7

 75
     0
147
1.0
 76
     0
 77
     2
 78
   300
148
0.0
149
0.0
100
AcDbLayout
  1
Model
 70
     1
 71
     0
 10
0.0
 20
0.0
 11
12.0
 21
9.0
 12
0.0
 22
0.0
 32
0.0
 14
0.0
 24
0.0
 34
0.0
 15
0.0
 25
0.0
 35
0.0
146
0.0
 13
0.0
 23
0.0
 33
0.0
 16
1.0
 26
0.0
 36
0.0
 17
0.0
 27
1.0
 37
0.0
 76
     0
330
6F
331
74
  0
MATERIAL
  5
19
102
{ACAD_XDICTIONARY
360
1A
102
}
102
{ACAD_REACTORS
330
10
102
}
330
10
100
AcDbMaterial
  1
ByBlock
 72
     0
 43
0.0208333333333333
 43
0.0
 43
0.0
 43
0.0
 43
0.0
 43
0.0208333333333333
 43
0.0
 43
0.0
 43
0.0
 43
0.0
 43
1.0
 43
0.0
 43
0.0
 43
0.0
 43
0.0
 43
1.0
 77
     0
 47
0.0208333333333333
 47
0.0
 47
0.0
 47
0.0
 47
0.0
 47
0.0208333333333333
 47
0.0
 47
0.0
 47
0.0
 47
0.0
 47
1.0
 47
0.0
 47
0.0
 47
0.0
 47
0.0
 47
1.0
171
     0
 49
0.0208333333333333
 49
0.0
 49
0.0
 49
0.0
 49
0.0
 49
0.0208333333333333
 49
0.0
 49
0.0
 49
0.0
 49
0.0
 49
1.0
 49
0.0
 49
0.0
 49
0.0
 49
0.0
 49
1.0
175
     0
142
0.0208333333333333
142
0.0
142
0.0
142
0.0
142
0.0
142
0.0208333333333333
142
0.0
142
0.0
142
0.0
142
0.0
142
1.0
142
0.0
142
0.0
142
0.0
142
0.0
142
1.0
179
     0
144
0.0208333333333333
144
0.0
144
0.0
144
0.0
144
0.0
144
0.0208333333333333
144
0.0
144
0.0
144
0.0
144
0.0
144
1.0
144
0.0
144
0.0
144
0.0
144
0.0
144
1.0
147
0.0208333333333333
147
0.0
147
0.0
147
0.0
147
0.0
147
0.0208333333333333
147
0.0
147
0.0
147
0.0
147
0.0
147
1.0
147
0.0
147
0.0
147
0.0
147
0.0
147
1.0
  0
MATERIAL
  5
11
102
{ACAD_XDICTIONARY
360
12
102
}
102
{ACAD_REACTORS
330
10
102
}
330
10
100
AcDbMaterial
  1
ByLayer
 72
     0
 43
0.0208333333333333
 43
0.0
 43
0.0
 43
0.0
 43
0.0
 43
0.0208333333333333
 43
0.0
 43
0.0
 43
0.0
 43
0.0
 43
1.0
 43
0.0
 43
0.0
 43
0.0
 43
0.0
 43
1.0
 77
     0
 47
0.0208333333333333
 47
0.0
 47
0.0
 47
0.0
 47
0.0
 47
0.0208333333333333
 47
0.0
 47
0.0
 47
0.0
 47
0.0
 47
1.0
 47
0.0
 47
0.0
 47
0.0
 47
0.0
 47
1.0
171
     0
 49
0.0208333333333333
 49
0.0
 49
0.0
 49
0.0
 49
0.0
 49
0.0208333333333333
 49
0.0
 49
0.0
 49
0.0
 49
0.0
 49
1.0
 49
0.0
 49
0.0
 49
0.0
 49
0.0
 49
1.0
175
     0
142
0.0208333333333333
142
0.0
142
0.0
142
0.0
142
0.0
142
0.0208333333333333
142
0.0
142
0.0
142
0.0
142
0.0
142
1.0
142
0.0
142
0.0
142
0.0
142
0.0
142
1.0
179
     0
144
0.0208333333333333
144
0.0
144
0.0
144
0.0
144
0.0
144
0.0208333333333333
144
0.0
144
0.0
144
0.0
144
0.0
144
1.0
144
0.0
144
0.0
144
0.0
144
0.0
144
1.0
147
0.0208333333333333
147
0.0
147
0.0
147
0.0
147
0.0
147
0.0208333333333333
147
0.0
147
0.0
147
0.0
147
0.0
147
1.0
147
0.0
147
0.0
147
0.0
147
0.0
147
1.0
  0
MATERIAL
  5
21
102
{ACAD_XDICTIONARY
360
22
102
}
102
{ACAD_REACTORS
330
10
102
}
330
10
100
AcDbMaterial
  1
Global
 72
     0
 43
0.0208333333333333
 43
0.0
 43
0.0
 43
0.0
 43
0.0
 43
0.0208333333333333
 43
0.0
 43
0.0
 43
0.0
 43
0.0
 43
1.0
 43
0.0
 43
0.0
 43
0.0
 43
0.0
 43
1.0
 77
     0
 47
0.0208333333333333
 47
0.0
 47
0.0
 47
0.0
 47
0.0
 47
0.0208333333333333
 47
0.0
 47
0.0
 47
0.0
 47
0.0
 47
1.0
 47
0.0
 47
0.0
 47
0.0
 47
0.0
 47
1.0
171
     0
 49
0.0208333333333333
 49
0.0
 49
0.0
 49
0.0
 49
0.0
 49
0.0208333333333333
 49
0.0
 49
0.0
 49
0.0
 49
0.0
 49
1.0
 49
0.0
 49
0.0
 49
0.0
 49
0.0
 49
1.0
175
     0
142
0.0208333333333333
142
0.0
142
0.0
142
0.0
142
0.0
142
0.0208333333333333
142
0.0
142
0.0
142
0.0
142
0.0
142
1.0
142
0.0
142
0.0
142
0.0
142
0.0
142
1.0
179
     0
144
0.0208333333333333
144
0.0
144
0.0
144
0.0
144
0.0
144
0.0208333333333333
144
0.0
144
0.0
144
0.0
144
0.0
144
1.0
144
0.0
144
0.0
144
0.0
144
0.0
144
1.0
147
0.0208333333333333
147
0.0
147
0.0
147
0.0
147
0.0
147
0.0208333333333333
147
0.0
147
0.0
147
0.0
147
0.0
147
1.0
147
0.0
147
0.0
147
0.0
147
0.0
147
1.0
  0
MLEADERSTYLE
  5
66
102
{ACAD_REACTORS
330
65
102
}
330
65
100
AcDbMLeaderStyle
179
     2
170
     2
171
     1
172
     0
 90
        2
 40
0.0
 41
0.0
173
     1
 91
-1056964608
340
5A
 92
       -2
290
     1
 42
0.09
291
     1
 43
0.36
  3
Standard
 44
0.18
300

342
55
174
     1
178
     6
175
     1
176
     0
 93
-1056964608
 45
0.18
292
     0
297
     0
 46
0.18
 94
-1056964608
 47
1.0
 49
1.0
140
1.0
293
     1
141
0.0
294
     1
177
     0
142
1.0
295
     0
296
     0
143
0.125
271
     0
272
     9
273
     9
298
     0
  0
MLINESTYLE
  5
5F
102
{ACAD_REACTORS
330
5E
102
}
330
5E
100
AcDbMlineStyle
  2
STANDARD
 70
     0
  3

 62
   256
 51
90.0
 52
90.0
 71
     2
 49
0.5
 62
   256
  6
BYLAYER
 49
-0.5
 62
   256
  6
BYLAYER
  0
ACDBPLACEHOLDER
  5
F
102
{ACAD_REACTORS
330
E
102
}
330
E
  0
SCALE
  5
43
102
{ACAD_REACTORS
330
42
102
}
330
42
100
AcDbScale
 70
     0
300
1:1
140
1.0
141
1.0
290
     1
  0
SCALE
  5
44
102
{ACAD_REACTORS
330
42
102
}
330
42
100
AcDbScale
 70
     0
300
1/128" = 1'-0"
140
0.0078125
141
12.0
290
     0
  0
SCALE
  5
45
102
{ACAD_REACTORS
330
42
102
}
330
42
100
AcDbScale
 70
     0
300
1/64" = 1'-0"
140
0.015625
141
12.0
290
     0
  0
SCALE
  5
46
102
{ACAD_REACTORS
330
42
102
}
330
42
100
AcDbScale
 70
     0
300
1/32" = 1'-0"
140
0.03125
141
12.0
290
     0
  0
SCALE
  5
47
102
{ACAD_REACTORS
330
42
102
}
330
42
100
AcDbScale
 70
     0
300
1/16" = 1'-0"
140
0.0625
141
12.0
290
     0
  0
SCALE
  5
48
102
{ACAD_REACTORS
330
42
102
}
330
42
100
AcDbScale
 70
     0
300
3/32" = 1'-0"
140
0.09375
141
12.0
290
     0
  0
SCALE
  5
49
102
{ACAD_REACTORS
330
42
102
}
330
42
100
AcDbScale
 70
     0
300
1/8" = 1'-0"
140
0.125
141
12.0
290
     0
  0
SCALE
  5
4A
102
{ACAD_REACTORS
330
42
102
}
330
42
100
AcDbScale
 70
     0
300
3/16" = 1'-0"
140
0.1875
141
12.0
290
     0
  0
SCALE
  5
4B
102
{ACAD_REACTORS
330
42
102
}
330
42
100
AcDbScale
 70
     0
300
1/4" = 1'-0"
140
0.25
141
12.0
290
     0
  0
SCALE
  5
4C
102
{ACAD_REACTORS
330
42
102
}
330
42
100
AcDbScale
 70
     0
300
3/8" = 1'-0"
140
0.375
141
12.0
290
     0
  0
SCALE
  5
4D
102
{ACAD_REACTORS
330
42
102
}
330
42
100
AcDbScale
 70
     0
300
1/2" = 1'-0"
140
0.5
141
12.0
290
     0
  0
SCALE
  5
4E
102
{ACAD_REACTORS
330
42
102
}
330
42
100
AcDbScale
 70
     0
300
3/4" = 1'-0"
140
0.75
141
12.0
290
     0
  0
SCALE
  5
4F
102
{ACAD_REACTORS
330
42
102
}
330
42
100
AcDbScale
 70
     0
300
1" = 1'-0"
140
1.0
141
12.0
290
     0
  0
SCALE
  5
50
102
{ACAD_REACTORS
330
42
102
}
330
42
100
AcDbScale
 70
     0
300
1-1/2" = 1'-0"
140
1.5
141
12.0
290
     0
  0
SCALE
  5
51
102
{ACAD_REACTORS
330
42
102
}
330
42
100
AcDbScale
 70
     0
300
3" = 1'-0"
140
3.0
141
12.0
290
     0
  0
SCALE
  5
52
102
{ACAD_REACTORS
330
42
102
}
330
42
100
AcDbScale
 70
     0
300
6" = 1'-0"
140
6.0
141
12.0
290
     0
  0
SCALE
  5
53
102
{ACAD_REACTORS
330
42
102
}
330
42
100
AcDbScale
 70
     0
300
1'-0" = 1'-0"
140
12.0
141
12.0
290
     0
  0
ACDBSECTIONVIEWSTYLE
  5
68
102
{ACAD_REACTORS
330
67
102
}
330
67
100
AcDbModelDocViewStyle
 70
     0
  3
Imperial24
290
     0
300
Imperial24
 90
        0
100
AcDbSectionViewStyle
 70
     0
 71
     0
 90
       78
 71
     1
340
55
 62
   256
 40
0.24
340
0
340
0
 62
   256
 40
0.24
300
I, O, Q, S, X, Z
 40
0.48
 90
        3
 40
0.18
 90
        1
 71
     2
340
5C
 90
       25
 62
   256
340
5C
 90
       50
 62
   256
 40
0.24
 40
0.0
 40
0.24
 71
     3
340
55
 62
   256
 40
0.24
 90
        1
 40
0.75
 90
        1
300
%<\AcVar ViewType \f "%tc1">% %<\AcVar ViewSectionStartId>%-%<\AcVar ViewSectionEndId>%\PSCALE %<\AcVar ViewScale \f "%sn">%
 71
     4
 62
   256
 62
   257
300
ANSI31
 40
1.0
 90
        0
290
     0
290
     0
 90
        6
 40
0.0
 40
1.570796326794896
 40
0.2617993877991494
 40
1.308996938995747
 40
-0.2617993877991494
 40
1.832595714594046
  0
TABLESTYLE
  5
64
102
{ACAD_XDICTIONARY
360
3D1
102
}
102
{ACAD_REACTORS
330
63
102
}
330
63
100
AcDbTableStyle
280
     0
  3
Standard
 70
     0
 71
     0
 40
0.06
 41
0.06
280
     0
281
     0
  7
Standard
140
0.18
170
     2
 62
     0
 63
     7
283
     0
 90
      512
 91
        0
  1

274
    -2
284
     1
 64
     0
275
    -2
285
     1
 65
     0
276
    -2
286
     1
 66
     0
277
    -2
287
     1
 67
     0
278
    -2
288
     1
 68
     0
279
    -2
289
     1
 69
     0
  7
Standard
140
0.25
170
     5
 62
     0
 63
     7
283
     0
 90
      512
 91
        0
  1

274
    -2
284
     1
 64
     0
275
    -2
285
     1
 65
     0
276
    -2
286
     1
 66
     0
277
    -2
287
     1
 67
     0
278
    -2
288
     1
 68
     0
279
    -2
289
     1
 69
     0
  7
Standard
140
0.18
170
     5
 62
     0
 63
     7
283
     0
 90
      512
 91
        0
  1

274
    -2
284
     1
 64
     0
275
    -2
285
     1
 65
     0
276
    -2
286
     1
 66
     0
277
    -2
287
     1
 67
     0
278
    -2
288
     1
 68
     0
279
    -2
289
     1
 69
     0
  0
VISUALSTYLE
  5
2F
102
{ACAD_REACTORS
330
29
102
}
330
29
100
AcDbVisualStyle
  2
2dWireframe
 70
     4
177
     3
291
     0
 70
    58
 90
        0
176
     1
 90
        2
176
     1
 90
        0
176
     1
 90
        0
176
     1
 40
0.6
176
     1
 40
30.0
176
     1
 62
     7
420
 16777215
176
     1
 90
        1
176
     1
 90
        4
176
     1
 62
     7
176
     1
 62
   257
176
     1
 90
        1
176
     1
 90
        1
176
     1
 40
1.0
176
     1
 90
        0
176
     1
 62
   257
176
     1
 40
1.0
176
     1
 90
        1
176
     1
 90
        6
176
     1
 90
        2
176
     1
 62
     7
176
     1
 90
        5
176
     1
 90
        0
176
     1
 90
        0
176
     1
290
     0
176
     1
 90
        1
176
     1
 40
0.0
176
     1
 90
        0
176
     1
290
     1
176
     1
290
     1
176
     1
290
     0
176
     1
290
     0
176
     1
290
     0
176
     1
290
     0
176
     1
290
     0
176
     1
290
     0
176
     1
290
     0
176
     1
 90
       50
176
     1
 40
0.0
176
     1
 40
1.0
176
     1
 90
        0
176
     1
 62
    18
420
        0
176
     1
 90
       50
176
     1
 90
        3
176
     1
 62
     5
420
      255
176
     1
290
     0
176
     1
 90
       50
176
     1
 90
       50
176
     1
 90
       50
176
     1
290
     0
176
     1
 90
       50
176
     1
 62
   256
176
     0
 40
1.0
176
     0
 90
        2
176
     1
  1
strokes_ogs.tif
176
     1
290
     0
176
     1
 40
1.0
176
     1
 40
1.0
176
     1
  0
VISUALSTYLE
  5
2E
102
{ACAD_REACTORS
330
29
102
}
330
29
100
AcDbVisualStyle
  2
Basic
 70
     7
177
     3
291
     1
 70
    58
 90
        1
176
     1
 90
        0
176
     1
 90
        1
176
     1
 90
        0
176
     1
 40
0.6
176
     1
 40
30.0
176
     1
 62
     7
420
 16777215
176
     1
 90
        0
176
     1
 90
        4
176
     1
 62
     7
176
     1
 62
   257
176
     1
 90
        1
176
     1
 90
        1
176
     1
 40
1.0
176
     1
 90
        8
176
     1
 62
     7
176
     1
 40
1.0
176
     1
 90
        1
176
     1
 90
        6
176
     1
 90
        2
176
     1
 62
     7
176
     1
 90
        5
176
     1
 90
        0
176
     1
 90
        0
176
     1
290
     0
176
     1
 90
        1
176
     1
 40
0.0
176
     1
 90
        0
176
     1
290
     0
176
     1
290
     1
176
     1
290
     1
176
     1
290
     0
176
     1
290
     0
176
     1
290
     0
176
     1
290
     0
176
     1
290
     0
176
     1
290
     0
176
     1
 90
       50
176
     1
 40
0.0
176
     1
 40
1.0
176
     1
 90
        0
176
     1
 62
    18
420
        0
176
     1
 90
       50
176
     1
 90
        3
176
     1
 62
     5
420
      255
176
     1
290
     0
176
     1
 90
       50
176
     1
 90
       50
176
     1
 90
       50
176
     1
290
     0
176
     1
 90
       50
176
     1
 62
   256
176
     0
 40
1.0
176
     0
 90
        2
176
     1
  1
strokes_ogs.tif
176
     1
290
     0
176
     1
 40
1.0
176
     1
 40
1.0
176
     1
  0
VISUALSTYLE
  5
35
102
{ACAD_REACTORS
330
29
102
}
330
29
100
AcDbVisualStyle
  2
Brighten
 70
    12
177
     3
291
     1
 70
    58
 90
        2
176
     1
 90
        2
176
     1
 90
        0
176
     1
 90
        0
176
     1
 40
0.6
176
     1
 40
30.0
176
     1
 62
     7
420
 16777215
176
     1
 90
        1
176
     1
 90
        4
176
     1
 62
     7
176
     1
 62
   257
176
     1
 90
        1
176
     1
 90
        1
176
     1
 40
1.0
176
     1
 90
        8
176
     1
 62
     7
176
     1
 40
1.0
176
     1
 90
        1
176
     1
 90
        6
176
     1
 90
        2
176
     1
 62
     7
176
     1
 90
        5
176
     1
 90
        0
176
     1
 90
        0
176
     1
290
     0
176
     1
 90
        1
176
     1
 40
50.0
176
     1
 90
        0
176
     1
290
     0
176
     1
290
     1
176
     1
290
     1
176
     1
290
     0
176
     1
290
     0
176
     1
290
     0
176
     1
290
     0
176
     1
290
     0
176
     1
290
     0
176
     1
 90
       50
176
     1
 40
0.0
176
     1
 40
1.0
176
     1
 90
        0
176
     1
 62
    18
420
        0
176
     1
 90
       50
176
     1
 90
        3
176
     1
 62
     5
420
      255
176
     1
290
     0
176
     1
 90
       50
176
     1
 90
       50
176
     1
 90
       50
176
     1
290
     0
176
     1
 90
       50
176
     1
 62
   256
176
     0
 40
1.0
176
     0
 90
        2
176
     1
  1
strokes_ogs.tif
176
     1
290
     0
176
     1
 40
1.0
176
     1
 40
1.0
176
     1
  0
VISUALSTYLE
  5
39
102
{ACAD_REACTORS
330
29
102
}
330
29
100
AcDbVisualStyle
  2
ColorChange
 70
    16
177
     3
291
     1
 70
    58
 90
        2
176
     1
 90
        2
176
     1
 90
        3
176
     1
 90
        0
176
     1
 40
0.6
176
     1
 40
30.0
176
     1
 62
     8
420
  8421504
176
     1
 90
        1
176
     1
 90
        4
176
     1
 62
     7
176
     1
 62
   257
176
     1
 90
        1
176
     1
 90
        1
176
     1
 40
1.0
176
     1
 90
        8
176
     1
 62
     8
420
  8421504
176
     1
 40
1.0
176
     1
 90
        1
176
     1
 90
        6
176
     1
 90
        2
176
     1
 62
     7
176
     1
 90
        5
176
     1
 90
        0
176
     1
 90
        0
176
     1
290
     0
176
     1
 90
        1
176
     1
 40
0.0
176
     1
 90
        0
176
     1
290
     0
176
     1
290
     1
176
     1
290
     1
176
     1
290
     0
176
     1
290
     0
176
     1
290
     0
176
     1
290
     0
176
     1
290
     0
176
     1
290
     0
176
     1
 90
       50
176
     1
 40
0.0
176
     1
 40
1.0
176
     1
 90
        0
176
     1
 62
    18
420
        0
176
     1
 90
       50
176
     1
 90
        3
176
     1
 62
     5
420
      255
176
     1
290
     0
176
     1
 90
       50
176
     1
 90
       50
176
     1
 90
       50
176
     1
290
     0
176
     1
 90
       50
176
     1
 62
   256
176
     0
 40
1.0
176
     0
 90
        2
176
     1
  1
strokes_ogs.tif
176
     1
290
     0
176
     1
 40
1.0
176
     1
 40
1.0
176
     1
  0
VISUALSTYLE
  5
32
102
{ACAD_REACTORS
330
29
102
}
330
29
100
AcDbVisualStyle
  2
Conceptual
 70
     9
177
     3
291
     0
 70
    58
 90
        3
176
     1
 90
        2
176
     1
 90
        0
176
     1
 90
        0
176
     1
 40
0.6
176
     1
 40
30.0
176
     1
 62
     7
420
 16777215
176
     1
 90
        2
176
     1
 90
        2
176
     1
 62
     7
176
     1
 62
   257
176
     1
 90
        1
176
     1
 90
        1
176
     1
 40
179.0
176
     1
 90
        8
176
     1
 62
     7
176
     1
 40
1.0
176
     1
 90
        1
176
     1
 90
        6
176
     1
 90
        2
176
     1
 62
     7
176
     1
 90
        3
176
     1
 90
        0
176
     1
 90
        0
176
     1
290
     0
176
     1
 90
        1
176
     1
 40
0.0
176
     1
 90
        0
176
     1
290
     0
176
     1
290
     1
176
     1
290
     1
176
     1
290
     0
176
     1
290
     0
176
     1
290
     0
176
     1
290
     0
176
     1
290
     0
176
     1
290
     0
176
     1
 90
       50
176
     1
 40
0.0
176
     1
 40
1.0
176
     1
 90
        0
176
     1
 62
    18
420
        0
176
     1
 90
       50
176
     1
 90
        3
176
     1
 62
     5
420
      255
176
     1
290
     0
176
     1
 90
       50
176
     1
 90
       50
176
     1
 90
       50
176
     1
290
     0
176
     1
 90
       50
176
     1
 62
   256
176
     0
 40
1.0
176
     0
 90
        2
176
     1
  1
strokes_ogs.tif
176
     1
290
     0
176
     1
 40
1.0
176
     1
 40
1.0
176
     1
  0
VISUALSTYLE
  5
34
102
{ACAD_REACTORS
330
29
102
}
330
29
100
AcDbVisualStyle
  2
Dim
 70
    11
177
     3
291
     1
 70
    58
 90
        2
176
     1
 90
        2
176
     1
 90
        0
176
     1
 90
        0
176
     1
 40
0.6
176
     1
 40
30.0
176
     1
 62
     7
420
 16777215
176
     1
 90
        1
176
     1
 90
        4
176
     1
 62
     7
176
     1
 62
   257
176
     1
 90
        1
176
     1
 90
        1
176
     1
 40
1.0
176
     1
 90
        8
176
     1
 62
     7
176
     1
 40
1.0
176
     1
 90
        1
176
     1
 90
        6
176
     1
 90
        2
176
     1
 62
     7
176
     1
 90
        5
176
     1
 90
        0
176
     1
 90
        0
176
     1
290
     0
176
     1
 90
        1
176
     1
 40
-50.0
176
     1
 90
        0
176
     1
290
     0
176
     1
290
     1
176
     1
290
     1
176
     1
290
     0
176
     1
290
     0
176
     1
290
     0
176
     1
290
     0
176
     1
290
     0
176
     1
290
     0
176
     1
 90
       50
176
     1
 40
0.0
176
     1
 40
1.0
176
     1
 90
        0
176
     1
 62
    18
420
        0
176
     1
 90
       50
176
     1
 90
        3
176
     1
 62
     5
420
      255
176
     1
290
     0
176
     1
 90
       50
176
     1
 90
       50
176
     1
 90
       50
176
     1
290
     0
176
     1
 90
       50
176
     1
 62
   256
176
     0
 40
1.0
176
     0
 90
        2
176
     1
  1
strokes_ogs.tif
176
     1
290
     0
176
     1
 40
1.0
176
     1
 40
1.0
176
     1
  0
VISUALSTYLE
  5
41
102
{ACAD_REACTORS
330
29
102
}
330
29
100
AcDbVisualStyle
  2
EdgeColorOff
 70
    22
177
     3
291
     1
 70
    58
 90
        2
176
     0
 90
        2
176
     0
 90
        0
176
     0
 90
        0
176
     0
 40
0.6
176
     0
 40
30.0
176
     0
 62
     7
420
 16777215
176
     0
 90
        1
176
     0
 90
        4
176
     0
 62
     7
176
     0
 62
   257
176
     0
 90
        1
176
     0
 90
        1
176
     0
 40
1.0
176
     0
 90
        8
176
     2
 62
     7
176
     0
 40
1.0
176
     0
 90
        1
176
     0
 90
        6
176
     0
 90
        2
176
     0
 62
     7
176
     0
 90
        5
176
     0
 90
        0
176
     0
 90
        0
176
     0
290
     0
176
     0
 90
        1
176
     0
 40
0.0
176
     0
 90
        0
176
     0
290
     0
176
     1
290
     1
176
     1
290
     1
176
     1
290
     0
176
     1
290
     0
176
     1
290
     0
176
     1
290
     0
176
     1
290
     0
176
     1
290
     0
176
     1
 90
       50
176
     0
 40
0.0
176
     0
 40
1.0
176
     0
 90
        0
176
     0
 62
    18
420
        0
176
     0
 90
       50
176
     0
 90
        3
176
     0
 62
     5
420
      255
176
     0
290
     0
176
     1
 90
       50
176
     0
 90
       50
176
     0
 90
       50
176
     0
290
     0
176
     1
 90
       50
176
     0
 62
   256
176
     0
 40
1.0
176
     0
 90
        2
176
     0
  1
strokes_ogs.tif
176
     0
290
     0
176
     1
 40
1.0
176
     0
 40
1.0
176
     0
  0
VISUALSTYLE
  5
38
102
{ACAD_REACTORS
330
29
102
}
330
29
100
AcDbVisualStyle
  2
Facepattern
 70
    15
177
     3
291
     1
 70
    58
 90
        2
176
     1
 90
        2
176
     1
 90
        0
176
     1
 90
        0
176
     1
 40
0.6
176
     1
 40
30.0
176
     1
 62
     7
420
 16777215
176
     1
 90
        1
176
     1
 90
        4
176
     1
 62
     7
176
     1
 62
   257
176
     1
 90
        1
176
     1
 90
        1
176
     1
 40
1.0
176
     1
 90
        8
176
     1
 62
     7
176
     1
 40
1.0
176
     1
 90
        1
176
     1
 90
        6
176
     1
 90
        2
176
     1
 62
     7
176
     1
 90
        5
176
     1
 90
        0
176
     1
 90
        0
176
     1
290
     0
176
     1
 90
        1
176
     1
 40
0.0
176
     1
 90
        0
176
     1
290
     0
176
     1
290
     1
176
     1
290
     1
176
     1
290
     0
176
     1
290
     0
176
     1
290
     0
176
     1
290
     0
176
     1
290
     0
176
     1
290
     0
176
     1
 90
       50
176
     1
 40
0.0
176
     1
 40
1.0
176
     1
 90
        0
176
     1
 62
    18
420
        0
176
     1
 90
       50
176
     1
 90
        3
176
     1
 62
     5
420
      255
176
     1
290
     0
176
     1
 90
       50
176
     1
 90
       50
176
     1
 90
       50
176
     1
290
     0
176
     1
 90
       50
176
     1
 62
   256
176
     0
 40
1.0
176
     0
 90
        2
176
     1
  1
strokes_ogs.tif
176
     1
290
     0
176
     1
 40
1.0
176
     1
 40
1.0
176
     1
  0
VISUALSTYLE
  5
2A
102
{ACAD_REACTORS
330
29
102
}
330
29
100
AcDbVisualStyle
  2
Flat
 70
     0
177
     3
291
     1
 70
    58
 90
        2
176
     1
 90
        1
176
     1
 90
        1
176
     1
 90
        2
176
     1
 40
0.6
176
     1
 40
30.0
176
     1
 62
     7
420
 16777215
176
     1
 90
        0
176
     1
 90
        0
176
     1
 62
     7
176
     1
 62
   257
176
     1
 90
        1
176
     1
 90
        1
176
     1
 40
1.0
176
     1
 90
        8
176
     1
 62
     7
176
     1
 40
1.0
176
     1
 90
        1
176
     1
 90
        6
176
     1
 90
        2
176
     1
 62
     7
176
     1
 90
        5
176
     1
 90
        0
176
     1
 90
        0
176
     1
290
     0
176
     1
 90
       13
176
     1
 40
0.0
176
     1
 90
        0
176
     1
290
     0
176
     1
290
     1
176
     1
290
     1
176
     1
290
     0
176
     1
290
     0
176
     1
290
     0
176
     1
290
     0
176
     1
290
     0
176
     1
290
     0
176
     1
 90
       50
176
     1
 40
0.0
176
     1
 40
1.0
176
     1
 90
        0
176
     1
 62
    18
420
        0
176
     1
 90
       50
176
     1
 90
        3
176
     1
 62
     5
420
      255
176
     1
290
     0
176
     1
 90
       50
176
     1
 90
       50
176
     1
 90
       50
176
     1
290
     0
176
     1
 90
       50
176
     1
 62
   256
176
     0
 40
1.0
176
     0
 90
        2
176
     1
  1
strokes_ogs.tif
176
     1
290
     0
176
     1
 40
1.0
176
     1
 40
1.0
176
     1
  0
VISUALSTYLE
  5
2B
102
{ACAD_REACTORS
330
29
102
}
330
29
100
AcDbVisualStyle
  2
FlatWithEdges
 70
     1
177
     3
291
     1
 70
    58
 90
        2
176
     1
 90
        1
176
     1
 90
        1
176
     1
 90
        2
176
     1
 40
0.6
176
     1
 40
30.0
176
     1
 62
     7
420
 16777215
176
     1
 90
        1
176
     1
 90
        0
176
     1
 62
     7
176
     1
 62
   257
176
     1
 90
        1
176
     1
 90
        1
176
     1
 40
1.0
176
     1
 90
        0
176
     1
 62
   257
176
     1
 40
1.0
176
     1
 90
        1
176
     1
 90
        6
176
     1
 90
        2
176
     1
 62
     7
176
     1
 90
        5
176
     1
 90
        0
176
     1
 90
        0
176
     1
290
     0
176
     1
 90
       13
176
     1
 40
0.0
176
     1
 90
        0
176
     1
290
     0
176
     1
290
     1
176
     1
290
     1
176
     1
290
     0
176
     1
290
     0
176
     1
290
     0
176
     1
290
     0
176
     1
290
     0
176
     1
290
     0
176
     1
 90
       50
176
     1
 40
0.0
176
     1
 40
1.0
176
     1
 90
        0
176
     1
 62
    18
420
        0
176
     1
 90
       50
176
     1
 90
        3
176
     1
 62
     5
420
      255
176
     1
290
     0
176
     1
 90
       50
176
     1
 90
       50
176
     1
 90
       50
176
     1
290
     0
176
     1
 90
       50
176
     1
 62
   256
176
     0
 40
1.0
176
     0
 90
        2
176
     1
  1
strokes_ogs.tif
176
     1
290
     0
176
     1
 40
1.0
176
     1
 40
1.0
176
     1
  0
VISUALSTYLE
  5
2C
102
{ACAD_REACTORS
330
29
102
}
330
29
100
AcDbVisualStyle
  2
Gouraud
 70
     2
177
     3
291
     1
 70
    58
 90
        2
176
     1
 90
        2
176
     1
 90
        1
176
     1
 90
        2
176
     1
 40
0.6
176
     1
 40
30.0
176
     1
 62
     7
420
 16777215
176
     1
 90
        0
176
     1
 90
        0
176
     1
 62
     7
176
     1
 62
   257
176
     1
 90
        1
176
     1
 90
        1
176
     1
 40
1.0
176
     1
 90
        0
176
     1
 62
     7
176
     1
 40
1.0
176
     1
 90
        1
176
     1
 90
        6
176
     1
 90
        2
176
     1
 62
     7
176
     1
 90
        5
176
     1
 90
        0
176
     1
 90
        0
176
     1
290
     0
176
     1
 90
       13
176
     1
 40
0.0
176
     1
 90
        0
176
     1
290
     0
176
     1
290
     1
176
     1
290
     1
176
     1
290
     0
176
     1
290
     0
176
     1
290
     0
176
     1
290
     0
176
     1
290
     0
176
     1
290
     0
176
     1
 90
       50
176
     1
 40
0.0
176
     1
 40
1.0
176
     1
 90
        0
176
     1
 62
    18
420
        0
176
     1
 90
       50
176
     1
 90
        3
176
     1
 62
     5
420
      255
176
     1
290
     0
176
     1
 90
       50
176
     1
 90
       50
176
     1
 90
       50
176
     1
290
     0
176
     1
 90
       50
176
     1
 62
   256
176
     0
 40
1.0
176
     0
 90
        2
176
     1
  1
strokes_ogs.tif
176
     1
290
     0
176
     1
 40
1.0
176
     1
 40
1.0
176
     1
  0
VISUALSTYLE
  5
2D
102
{ACAD_REACTORS
330
29
102
}
330
29
100
AcDbVisualStyle
  2
GouraudWithEdges
 70
     3
177
     3
291
     1
 70
    58
 90
        2
176
     1
 90
        2
176
     1
 90
        1
176
     1
 90
        2
176
     1
 40
0.6
176
     1
 40
30.0
176
     1
 62
     7
420
 16777215
176
     1
 90
        1
176
     1
 90
        0
176
     1
 62
     7
176
     1
 62
   257
176
     1
 90
        1
176
     1
 90
        1
176
     1
 40
1.0
176
     1
 90
        0
176
     1
 62
   257
176
     1
 40
1.0
176
     1
 90
        1
176
     1
 90
        6
176
     1
 90
        2
176
     1
 62
     7
176
     1
 90
        5
176
     1
 90
        0
176
     1
 90
        0
176
     1
290
     0
176
     1
 90
       13
176
     1
 40
0.0
176
     1
 90
        0
176
     1
290
     0
176
     1
290
     1
176
     1
290
     1
176
     1
290
     0
176
     1
290
     0
176
     1
290
     0
176
     1
290
     0
176
     1
290
     0
176
     1
290
     0
176
     1
 90
       50
176
     1
 40
0.0
176
     1
 40
1.0
176
     1
 90
        0
176
     1
 62
    18
420
        0
176
     1
 90
       50
176
     1
 90
        3
176
     1
 62
     5
420
      255
176
     1
290
     0
176
     1
 90
       50
176
     1
 90
       50
176
     1
 90
       50
176
     1
290
     0
176
     1
 90
       50
176
     1
 62
   256
176
     0
 40
1.0
176
     0
 90
        2
176
     1
  1
strokes_ogs.tif
176
     1
290
     0
176
     1
 40
1.0
176
     1
 40
1.0
176
     1
  0
VISUALSTYLE
  5
31
102
{ACAD_REACTORS
330
29
102
}
330
29
100
AcDbVisualStyle
  2
Hidden
 70
     6
177
     3
291
     0
 70
    58
 90
        1
176
     1
 90
        2
176
     1
 90
        2
176
     1
 90
        0
176
     1
 40
0.6
176
     1
 40
30.0
176
     1
 62
     7
420
 16777215
176
     1
 90
        2
176
     1
 90
        2
176
     1
 62
     7
176
     1
 62
   257
176
     1
 90
        2
176
     1
 90
        1
176
     1
 40
40.0
176
     1
 90
        0
176
     1
 62
   257
176
     1
 40
1.0
176
     1
 90
        1
176
     1
 90
        6
176
     1
 90
        2
176
     1
 62
     7
176
     1
 90
        3
176
     1
 90
        0
176
     1
 90
        0
176
     1
290
     0
176
     1
 90
        1
176
     1
 40
0.0
176
     1
 90
        0
176
     1
290
     0
176
     1
290
     1
176
     1
290
     1
176
     1
290
     0
176
     1
290
     0
176
     1
290
     0
176
     1
290
     0
176
     1
290
     0
176
     1
290
     0
176
     1
 90
       50
176
     1
 40
0.0
176
     1
 40
1.0
176
     1
 90
        0
176
     1
 62
    18
420
        0
176
     1
 90
       50
176
     1
 90
        3
176
     1
 62
     5
420
      255
176
     1
290
     0
176
     1
 90
       50
176
     1
 90
       50
176
     1
 90
       50
176
     1
290
     0
176
     1
 90
       50
176
     1
 62
   256
176
     0
 40
1.0
176
     0
 90
        2
176
     1
  1
strokes_ogs.tif
176
     1
290
     0
176
     1
 40
1.0
176
     1
 40
1.0
176
     1
  0
VISUALSTYLE
  5
3F
102
{ACAD_REACTORS
330
29
102
}
330
29
100
AcDbVisualStyle
  2
JitterOff
 70
    20
177
     3
291
     1
 70
    58
 90
        2
176
     0
 90
        2
176
     0
 90
        0
176
     0
 90
        0
176
     0
 40
0.6
176
     0
 40
30.0
176
     0
 62
     7
420
 16777215
176
     0
 90
        1
176
     0
 90
        4
176
     0
 62
     7
176
     0
 62
   257
176
     0
 90
        1
176
     0
 90
        1
176
     0
 40
1.0
176
     0
 90
       10
176
     2
 62
     7
176
     0
 40
1.0
176
     0
 90
        1
176
     0
 90
        6
176
     0
 90
        2
176
     0
 62
     7
176
     0
 90
        5
176
     0
 90
        0
176
     0
 90
        0
176
     0
290
     0
176
     0
 90
        1
176
     0
 40
0.0
176
     0
 90
        0
176
     0
290
     0
176
     1
290
     1
176
     1
290
     1
176
     1
290
     0
176
     1
290
     0
176
     1
290
     0
176
     1
290
     0
176
     1
290
     0
176
     1
290
     0
176
     1
 90
       50
176
     0
 40
0.0
176
     0
 40
1.0
176
     0
 90
        0
176
     0
 62
    18
420
        0
176
     0
 90
       50
176
     0
 90
        3
176
     0
 62
     5
420
      255
176
     0
290
     0
176
     1
 90
       50
176
     0
 90
       50
176
     0
 90
       50
176
     0
290
     0
176
     1
 90
       50
176
     0
 62
   256
176
     0
 40
1.0
176
     0
 90
        2
176
     0
  1
strokes_ogs.tif
176
     0
290
     0
176
     1
 40
1.0
176
     0
 40
1.0
176
     0
  0
VISUALSTYLE
  5
37
102
{ACAD_REACTORS
330
29
102
}
330
29
100
AcDbVisualStyle
  2
Linepattern
 70
    14
177
     3
291
     1
 70
    58
 90
        2
176
     1
 90
        2
176
     1
 90
        0
176
     1
 90
        0
176
     1
 40
0.6
176
     1
 40
30.0
176
     1
 62
     7
420
 16777215
176
     1
 90
        1
176
     1
 90
        4
176
     1
 62
     7
176
     1
 62
   257
176
     1
 90
        7
176
     1
 90
        7
176
     1
 40
1.0
176
     1
 90
        8
176
     1
 62
     7
176
     1
 40
1.0
176
     1
 90
        1
176
     1
 90
        6
176
     1
 90
        2
176
     1
 62
     7
176
     1
 90
        5
176
     1
 90
        0
176
     1
 90
        0
176
     1
290
     0
176
     1
 90
        1
176
     1
 40
0.0
176
     1
 90
        0
176
     1
290
     0
176
     1
290
     1
176
     1
290
     1
176
     1
290
     0
176
     1
290
     0
176
     1
290
     0
176
     1
290
     0
176
     1
290
     0
176
     1
290
     0
176
     1
 90
       50
176
     1
 40
0.0
176
     1
 40
1.0
176
     1
 90
        0
176
     1
 62
    18
420
        0
176
     1
 90
       50
176
     1
 90
        3
176
     1
 62
     5
420
      255
176
     1
290
     0
176
     1
 90
       50
176
     1
 90
       50
176
     1
 90
       50
176
     1
290
     0
176
     1
 90
       50
176
     1
 62
   256
176
     0
 40
1.0
176
     0
 90
        2
176
     1
  1
strokes_ogs.tif
176
     1
290
     0
176
     1
 40
1.0
176
     1
 40
1.0
176
     1
  0
VISUALSTYLE
  5
40
102
{ACAD_REACTORS
330
29
102
}
330
29
100
AcDbVisualStyle
  2
OverhangOff
 70
    21
177
     3
291
     1
 70
    58
 90
        2
176
     0
 90
        2
176
     0
 90
        0
176
     0
 90
        0
176
     0
 40
0.6
176
     0
 40
30.0
176
     0
 62
     7
420
 16777215
176
     0
 90
        1
176
     0
 90
        4
176
     0
 62
     7
176
     0
 62
   257
176
     0
 90
        1
176
     0
 90
        1
176
     0
 40
1.0
176
     0
 90
        9
176
     2
 62
     7
176
     0
 40
1.0
176
     0
 90
        1
176
     0
 90
        6
176
     0
 90
        2
176
     0
 62
     7
176
     0
 90
        5
176
     0
 90
        0
176
     0
 90
        0
176
     0
290
     0
176
     0
 90
        1
176
     0
 40
0.0
176
     0
 90
        0
176
     0
290
     0
176
     1
290
     1
176
     1
290
     1
176
     1
290
     0
176
     1
290
     0
176
     1
290
     0
176
     1
290
     0
176
     1
290
     0
176
     1
290
     0
176
     1
 90
       50
176
     0
 40
0.0
176
     0
 40
1.0
176
     0
 90
        0
176
     0
 62
    18
420
        0
176
     0
 90
       50
176
     0
 90
        3
176
     0
 62
     5
420
      255
176
     0
290
     0
176
     1
 90
       50
176
     0
 90
       50
176
     0
 90
       50
176
     0
290
     0
176
     1
 90
       50
176
     0
 62
   256
176
     0
 40
1.0
176
     0
 90
        2
176
     0
  1
strokes_ogs.tif
176
     0
290
     0
176
     1
 40
1.0
176
     0
 40
1.0
176
     0
  0
VISUALSTYLE
  5
33
102
{ACAD_REACTORS
330
29
102
}
330
29
100
AcDbVisualStyle
  2
Realistic
 70
     8
177
     3
291
     0
 70
    58
 90
        2
176
     1
 90
        3
176
     1
 90
        0
176
     1
 90
        2
176
     1
 40
0.6
176
     1
 40
30.0
176
     1
 62
     7
420
 16777215
176
     1
 90
        0
176
     1
 90
        0
176
     1
 62
     7
176
     1
 62
   257
176
     1
 90
        1
176
     1
 90
        1
176
     1
 40
1.0
176
     1
 90
        8
176
     1
 62
   257
176
     1
 40
1.0
176
     1
 90
        1
176
     1
 90
        6
176
     1
 90
        2
176
     1
 62
     7
176
     1
 90
        3
176
     1
 90
        0
176
     1
 90
        0
176
     1
290
     0
176
     1
 90
       13
176
     1
 40
0.0
176
     1
 90
        0
176
     1
290
     0
176
     1
290
     1
176
     1
290
     1
176
     1
290
     0
176
     1
290
     0
176
     1
290
     0
176
     1
290
     0
176
     1
290
     0
176
     1
290
     0
176
     1
 90
       50
176
     1
 40
0.0
176
     1
 40
1.0
176
     1
 90
        0
176
     1
 62
    18
420
        0
176
     1
 90
       50
176
     1
 90
        3
176
     1
 62
     5
420
      255
176
     1
290
     0
176
     1
 90
       50
176
     1
 90
       50
176
     1
 90
       50
176
     1
290
     0
176
     1
 90
       50
176
     1
 62
   256
176
     0
 40
1.0
176
     0
 90
        2
176
     1
  1
strokes_ogs.tif
176
     1
290
     0
176
     1
 40
1.0
176
     1
 40
1.0
176
     1
  0
VISUALSTYLE
  5
3E
102
{ACAD_REACTORS
330
29
102
}
330
29
100
AcDbVisualStyle
  2
Shaded
 70
    27
177
     3
291
     0
 70
    58
 90
        2
176
     1
 90
        2
176
     1
 90
        1
176
     1
 90
        2
176
     1
 40
0.6
176
     1
 40
30.0
176
     1
 62
     7
420
 16777215
176
     1
 90
        0
176
     1
 90
        4
176
     1
 62
     7
176
     1
 62
   257
176
     1
 90
        1
176
     1
 90
        1
176
     1
 40
1.0
176
     1
 90
        8
176
     1
 62
   257
176
     1
 40
1.0
176
     1
 90
        1
176
     1
 90
        6
176
     1
 90
        2
176
     1
 62
     8
420
  7895160
176
     1
 90
        3
176
     1
 90
        0
176
     1
 90
        0
176
     1
290
     0
176
     1
 90
        5
176
     1
 40
0.0
176
     1
 90
        0
176
     1
290
     0
176
     1
290
     1
176
     1
290
     1
176
     1
290
     0
176
     1
290
     0
176
     1
290
     0
176
     1
290
     0
176
     1
290
     0
176
     1
290
     0
176
     1
 90
       50
176
     1
 40
0.0
176
     1
 40
1.0
176
     1
 90
        0
176
     1
 62
    18
420
        0
176
     1
 90
       50
176
     1
 90
        3
176
     1
 62
     5
420
      255
176
     1
290
     0
176
     1
 90
       50
176
     1
 90
       50
176
     1
 90
       50
176
     1
290
     0
176
     1
 90
       50
176
     1
 62
   256
176
     0
 40
1.0
176
     0
 90
        2
176
     1
  1
strokes_ogs.tif
176
     1
290
     0
176
     1
 40
1.0
176
     1
 40
1.0
176
     1
  0
VISUALSTYLE
  5
3D
102
{ACAD_REACTORS
330
29
102
}
330
29
100
AcDbVisualStyle
  2
Shaded with edges
 70
    26
177
     3
291
     0
 70
    58
 90
        2
176
     1
 90
        2
176
     1
 90
        1
176
     1
 90
        2
176
     1
 40
0.6
176
     1
 40
30.0
176
     1
 62
     7
420
 16777215
176
     1
 90
        1
176
     1
 90
        2
176
     1
 62
     7
176
     1
 62
   257
176
     1
 90
        2
176
     1
 90
        1
176
     1
 40
1.0
176
     1
 90
        8
176
     1
 62
   257
176
     1
 40
1.0
176
     1
 90
        1
176
     1
 90
        6
176
     1
 90
        2
176
     1
 62
     7
176
     1
 90
        3
176
     1
 90
        0
176
     1
 90
        0
176
     1
290
     0
176
     1
 90
        5
176
     1
 40
0.0
176
     1
 90
        0
176
     1
290
     0
176
     1
290
     1
176
     1
290
     1
176
     1
290
     0
176
     1
290
     0
176
     1
290
     0
176
     1
290
     0
176
     1
290
     0
176
     1
290
     0
176
     1
 90
       50
176
     1
 40
0.0
176
     1
 40
1.0
176
     1
 90
        0
176
     1
 62
    18
420
        0
176
     1
 90
       50
176
     1
 90
        3
176
     1
 62
     5
420
      255
176
     1
290
     0
176
     1
 90
       50
176
     1
 90
       50
176
     1
 90
       50
176
     1
290
     0
176
     1
 90
       50
176
     1
 62
   256
176
     0
 40
1.0
176
     0
 90
        2
176
     1
  1
strokes_ogs.tif
176
     1
290
     0
176
     1
 40
1.0
176
     1
 40
1.0
176
     1
  0
VISUALSTYLE
  5
3A
102
{ACAD_REACTORS
330
29
102
}
330
29
100
AcDbVisualStyle
  2
Shades of Gray
 70
    23
177
     3
291
     0
 70
    58
 90
        2
176
     1
 90
        2
176
     1
 90
        3
176
     1
 90
        0
176
     1
 40
0.6
176
     1
 40
30.0
176
     1
 62
     7
420
 16777215
176
     1
 90
        2
176
     1
 90
        2
176
     1
 62
     7
176
     1
 62
     7
176
     1
 90
        1
176
     1
 90
        1
176
     1
 40
40.0
176
     1
 90
        8
176
     1
 62
     7
176
     1
 40
1.0
176
     1
 90
        1
176
     1
 90
        6
176
     1
 90
        2
176
     1
 62
     7
176
     1
 90
        3
176
     1
 90
        0
176
     1
 90
        0
176
     1
290
     0
176
     1
 90
        1
176
     1
 40
0.0
176
     1
 90
        0
176
     1
290
     0
176
     1
290
     1
176
     1
290
     1
176
     1
290
     0
176
     1
290
     0
176
     1
290
     0
176
     1
290
     0
176
     1
290
     0
176
     1
290
     0
176
     1
 90
       50
176
     1
 40
0.0
176
     1
 40
1.0
176
     1
 90
        0
176
     1
 62
    18
420
        0
176
     1
 90
       50
176
     1
 90
        3
176
     1
 62
     5
420
      255
176
     1
290
     0
176
     1
 90
       50
176
     1
 90
       50
176
     1
 90
       50
176
     1
290
     0
176
     1
 90
       50
176
     1
 62
   256
176
     0
 40
1.0
176
     0
 90
        2
176
     1
  1
strokes_ogs.tif
176
     1
290
     0
176
     1
 40
1.0
176
     1
 40
1.0
176
     1
  0
VISUALSTYLE
  5
3B
102
{ACAD_REACTORS
330
29
102
}
330
29
100
AcDbVisualStyle
  2
Sketchy
 70
    24
177
     3
291
     0
 70
    58
 90
        1
176
     1
 90
        2
176
     1
 90
        2
176
     1
 90
        0
176
     1
 40
0.6
176
     1
 40
30.0
176
     1
 62
     7
420
 16777215
176
     1
 90
        2
176
     1
 90
        2
176
     1
 62
     7
176
     1
 62
     7
176
     1
 90
        1
176
     1
 90
        1
176
     1
 40
40.0
176
     1
 90
       11
176
     1
 62
     7
176
     1
 40
1.0
176
     1
 90
        1
176
     1
 90
        6
176
     1
 90
        2
176
     1
 62
     7
176
     1
 90
        6
176
     1
 90
        0
176
     1
 90
        0
176
     1
290
     0
176
     1
 90
        1
176
     1
 40
0.0
176
     1
 90
        0
176
     1
290
     0
176
     1
290
     1
176
     1
290
     1
176
     1
290
     0
176
     1
290
     0
176
     1
290
     0
176
     1
290
     0
176
     1
290
     0
176
     1
290
     0
176
     1
 90
       50
176
     1
 40
0.0
176
     1
 40
1.0
176
     1
 90
        0
176
     1
 62
    18
420
        0
176
     1
 90
       50
176
     1
 90
        3
176
     1
 62
     5
420
      255
176
     1
290
     0
176
     1
 90
       50
176
     1
 90
       50
176
     1
 90
       50
176
     1
290
     0
176
     1
 90
       50
176
     1
 62
   256
176
     0
 40
1.0
176
     0
 90
        2
176
     1
  1
strokes_ogs.tif
176
     1
290
     0
176
     1
 40
1.0
176
     1
 40
1.0
176
     1
  0
VISUALSTYLE
  5
36
102
{ACAD_REACTORS
330
29
102
}
330
29
100
AcDbVisualStyle
  2
Thicken
 70
    13
177
     3
291
     1
 70
    58
 90
        2
176
     1
 90
        2
176
     1
 90
        0
176
     1
 90
        0
176
     1
 40
0.6
176
     1
 40
30.0
176
     1
 62
     7
420
 16777215
176
     1
 90
        1
176
     1
 90
        4
176
     1
 62
     7
176
     1
 62
   257
176
     1
 90
        1
176
     1
 90
        1
176
     1
 40
1.0
176
     1
 90
       12
176
     1
 62
     7
176
     1
 40
1.0
176
     1
 90
        1
176
     1
 90
        6
176
     1
 90
        2
176
     1
 62
     7
176
     1
 90
        5
176
     1
 90
        0
176
     1
 90
        0
176
     1
290
     0
176
     1
 90
        1
176
     1
 40
0.0
176
     1
 90
        0
176
     1
290
     0
176
     1
290
     1
176
     1
290
     1
176
     1
290
     0
176
     1
290
     0
176
     1
290
     0
176
     1
290
     0
176
     1
290
     0
176
     1
290
     0
176
     1
 90
       50
176
     1
 40
0.0
176
     1
 40
1.0
176
     1
 90
        0
176
     1
 62
    18
420
        0
176
     1
 90
       50
176
     1
 90
        3
176
     1
 62
     5
420
      255
176
     1
290
     0
176
     1
 90
       50
176
     1
 90
       50
176
     1
 90
       50
176
     1
290
     0
176
     1
 90
       50
176
     1
 62
   256
176
     0
 40
1.0
176
     0
 90
        2
176
     1
  1
strokes_ogs.tif
176
     1
290
     0
176
     1
 40
1.0
176
     1
 40
1.0
176
     1
  0
VISUALSTYLE
  5
30
102
{ACAD_REACTORS
330
29
102
}
330
29
100
AcDbVisualStyle
  2
Wireframe
 70
     5
177
     3
291
     0
 70
    58
 90
        0
176
     1
 90
        2
176
     1
 90
        0
176
     1
 90
        0
176
     1
 40
0.6
176
     1
 40
30.0
176
     1
 62
     7
420
 16777215
176
     1
 90
        1
176
     1
 90
        4
176
     1
 62
     7
176
     1
 62
   257
176
     1
 90
        1
176
     1
 90
        1
176
     1
 40
1.0
176
     1
 90
        0
176
     1
 62
   257
176
     1
 40
1.0
176
     1
 90
        1
176
     1
 90
        6
176
     1
 90
        2
176
     1
 62
     7
176
     1
 90
        3
176
     1
 90
        0
176
     1
 90
        0
176
     1
290
     0
176
     1
 90
        1
176
     1
 40
0.0
176
     1
 90
        0
176
     1
290
     0
176
     1
290
     1
176
     1
290
     1
176
     1
290
     0
176
     1
290
     0
176
     1
290
     0
176
     1
290
     0
176
     1
290
     0
176
     1
290
     0
176
     1
 90
       50
176
     1
 40
0.0
176
     1
 40
1.0
176
     1
 90
        0
176
     1
 62
    18
420
        0
176
     1
 90
       50
176
     1
 90
        3
176
     1
 62
     5
420
      255
176
     1
290
     0
176
     1
 90
       50
176
     1
 90
       50
176
     1
 90
       50
176
     1
290
     0
176
     1
 90
       50
176
     1
 62
   256
176
     0
 40
1.0
176
     0
 90
        2
176
     1
  1
strokes_ogs.tif
176
     1
290
     0
176
     1
 40
1.0
176
     1
 40
1.0
176
     1
  0
VISUALSTYLE
  5
3C
102
{ACAD_REACTORS
330
29
102
}
330
29
100
AcDbVisualStyle
  2
X-Ray
 70
    25
177
     3
291
     0
 70
    58
 90
        2
176
     1
 90
        2
176
     1
 90
        1
176
     1
 90
        1
176
     1
 40
0.5
176
     1
 40
30.0
176
     1
 62
     7
420
 16777215
176
     1
 90
        1
176
     1
 90
        0
176
     1
 62
     7
176
     1
 62
   257
176
     1
 90
        1
176
     1
 90
        1
176
     1
 40
1.0
176
     1
 90
        8
176
     1
 62
     7
176
     1
 40
1.0
176
     1
 90
        1
176
     1
 90
        6
176
     1
 90
        2
176
     1
 62
     7
176
     1
 90
        3
176
     1
 90
        0
176
     1
 90
        0
176
     1
290
     0
176
     1
 90
       13
176
     1
 40
0.0
176
     1
 90
        0
176
     1
290
     0
176
     1
290
     1
176
     1
290
     1
176
     1
290
     0
176
     1
290
     0
176
     1
290
     0
176
     1
290
     0
176
     1
290
     0
176
     1
290
     0
176
     1
 90
       50
176
     1
 40
0.0
176
     1
 40
1.0
176
     1
 90
        0
176
     1
 62
    18
420
        0
176
     1
 90
       50
176
     1
 90
        3
176
     1
 62
     5
420
      255
176
     1
290
     0
176
     1
 90
       50
176
     1
 90
       50
176
     1
 90
       50
176
     1
290
     0
176
     1
 90
       50
176
     1
 62
   256
176
     0
 40
1.0
176
     0
 90
        2
176
     1
  1
strokes_ogs.tif
176
     1
290
     0
176
     1
 40
1.0
176
     1
 40
1.0
176
     1
  0
DICTIONARYVAR
  5
185
102
{ACAD_REACTORS
330
17F
102
}
330
17F
100
DictionaryVariables
280
     0
  1
1:1
  0
DICTIONARYVAR
  5
181
102
{ACAD_REACTORS
330
17F
102
}
330
17F
100
DictionaryVariables
280
     0
  1
STANDARD
  0
DICTIONARYVAR
  5
180
102
{ACAD_REACTORS
330
17F
102
}
330
17F
100
DictionaryVariables
280
     0
  1
STANDARD
  0
DICTIONARYVAR
  5
182
102
{ACAD_REACTORS
330
17F
102
}
330
17F
100
DictionaryVariables
280
     0
  1
Imperial24
  0
DICTIONARYVAR
  5
183
102
{ACAD_REACTORS
330
17F
102
}
330
17F
100
DictionaryVariables
280
     0
  1
Imperial24
  0
DICTIONARYVAR
  5
187
102
{ACAD_REACTORS
330
17F
102
}
330
17F
100
DictionaryVariables
280
     0
  1
1
  0
DICTIONARYVAR
  5
188
102
{ACAD_REACTORS
330
17F
102
}
330
17F
100
DictionaryVariables
280
     0
  1
15
  0
DICTIONARYVAR
  5
186
102
{ACAD_REACTORS
330
17F
102
}
330
17F
100
DictionaryVariables
280
     0
  1
0
  0
DICTIONARYVAR
  5
184
102
{ACAD_REACTORS
330
17F
102
}
330
17F
100
DictionaryVariables
280
     0
  1
0
  0
DICTIONARY
  5
1A
330
19
100
AcDbDictionary
280
     1
281
     1
  3
BUMPTILE
360
1C
  3
DIFFUSETILE
360
1B
  3
OPACITYTILE
360
1F
  3
REFLECTIONTILE
360
1E
  3
REFRACTIONTILE
360
20
  3
SPECULARTILE
360
1D
  0
DICTIONARY
  5
12
330
11
100
AcDbDictionary
280
     1
281
     1
  3
BUMPTILE
360
14
  3
DIFFUSETILE
360
13
  3
OPACITYTILE
360
17
  3
REFLECTIONTILE
360
16
  3
REFRACTIONTILE
360
18
  3
SPECULARTILE
360
15
  0
DICTIONARY
  5
22
330
21
100
AcDbDictionary
280
     1
281
     1
  3
BUMPTILE
360
24
  3
DIFFUSETILE
360
23
  3
OPACITYTILE
360
27
  3
REFLECTIONTILE
360
26
  3
REFRACTIONTILE
360
28
  3
SPECULARTILE
360
25
  0
DICTIONARY
  5
3D1
330
64
100
AcDbDictionary
280
     1
281
     1
  3
ACAD_ROUNDTRIP_2008_TABLESTYLE_CELLSTYLEMAP
360
3D2
  0
XRECORD
  5
1C
102
{ACAD_REACTORS
330
1A
102
}
330
1A
100
AcDbXrecord
280
     1
270
     1
271
     1
  0
XRECORD
  5
1B
102
{ACAD_REACTORS
330
1A
102
}
330
1A
100
AcDbXrecord
280
     1
270
     1
271
     1
  0
XRECORD
  5
1F
102
{ACAD_REACTORS
330
1A
102
}
330
1A
100
AcDbXrecord
280
     1
270
     1
271
     1
  0
XRECORD
  5
1E
102
{ACAD_REACTORS
330
1A
102
}
330
1A
100
AcDbXrecord
280
     1
270
     1
271
     1
  0
XRECORD
  5
20
102
{ACAD_REACTORS
330
1A
102
}
330
1A
100
AcDbXrecord
280
     1
270
     1
271
     1
  0
XRECORD
  5
1D
102
{ACAD_REACTORS
330
1A
102
}
330
1A
100
AcDbXrecord
280
     1
270
     1
271
     1
  0
XRECORD
  5
14
102
{ACAD_REACTORS
330
12
102
}
330
12
100
AcDbXrecord
280
     1
270
     1
271
     1
  0
XRECORD
  5
13
102
{ACAD_REACTORS
330
12
102
}
330
12
100
AcDbXrecord
280
     1
270
     1
271
     1
  0
XRECORD
  5
17
102
{ACAD_REACTORS
330
12
102
}
330
12
100
AcDbXrecord
280
     1
270
     1
271
     1
  0
XRECORD
  5
16
102
{ACAD_REACTORS
330
12
102
}
330
12
100
AcDbXrecord
280
     1
270
     1
271
     1
  0
XRECORD
  5
18
102
{ACAD_REACTORS
330
12
102
}
330
12
100
AcDbXrecord
280
     1
270
     1
271
     1
  0
XRECORD
  5
15
102
{ACAD_REACTORS
330
12
102
}
330
12
100
AcDbXrecord
280
     1
270
     1
271
     1
  0
XRECORD
  5
24
102
{ACAD_REACTORS
330
22
102
}
330
22
100
AcDbXrecord
280
     1
270
     1
271
     1
  0
XRECORD
  5
23
102
{ACAD_REACTORS
330
22
102
}
330
22
100
AcDbXrecord
280
     1
270
     1
271
     1
  0
XRECORD
  5
27
102
{ACAD_REACTORS
330
22
102
}
330
22
100
AcDbXrecord
280
     1
270
     1
271
     1
  0
XRECORD
  5
26
102
{ACAD_REACTORS
330
22
102
}
330
22
100
AcDbXrecord
280
     1
270
     1
271
     1
  0
XRECORD
  5
28
102
{ACAD_REACTORS
330
22
102
}
330
22
100
AcDbXrecord
280
     1
270
     1
271
     1
  0
XRECORD
  5
25
102
{ACAD_REACTORS
330
22
102
}
330
22
100
AcDbXrecord
280
     1
270
     1
271
     1
  0
CELLSTYLEMAP
  5
3D2
102
{ACAD_REACTORS
330
3D1
102
}
330
3D1
100
AcDbCellStyleMap
 90
        3
300
CELLSTYLE
  1
TABLEFORMAT_BEGIN
 90
        5
170
     1
 91
        0
 92
    32768
 62
   257
 93
        1
300
CONTENTFORMAT
  1
CONTENTFORMAT_BEGIN
 90
        0
 91
        0
 92
      512
 93
        0
300

 40
0.0
140
1.0
 94
        5
 62
     0
340
55
144
0.25
309
CONTENTFORMAT_END
171
     0
 94
        0
309
TABLEFORMAT_END
  1
CELLSTYLE_BEGIN
 90
        1
 91
        1
300
_TITLE
309
CELLSTYLE_END
300
CELLSTYLE
  1
TABLEFORMAT_BEGIN
 90
        5
170
     1
 91
        0
 92
        0
 62
   257
 93
        1
300
CONTENTFORMAT
  1
CONTENTFORMAT_BEGIN
 90
        0
 91
        0
 92
      512
 93
        0
300

 40
0.0
140
1.0
 94
        5
 62
     0
340
55
144
0.18
309
CONTENTFORMAT_END
171
     0
 94
        0
309
TABLEFORMAT_END
  1
CELLSTYLE_BEGIN
 90
        2
 91
        1
300
_HEADER
309
CELLSTYLE_END
300
CELLSTYLE
  1
TABLEFORMAT_BEGIN
 90
        5
170
     1
 91
        0
 92
        0
 62
   257
 93
        1
300
CONTENTFORMAT
  1
CONTENTFORMAT_BEGIN
 90
        0
 91
        0
 92
      512
 93
        0
300

 40
0.0
140
1.0
 94
        2
 62
     0
340
55
144
0.18
309
CONTENTFORMAT_END
171
     0
 94
        0
309
TABLEFORMAT_END
  1
CELLSTYLE_BEGIN
 90
        3
 91
        2
300
_DATA
309
CELLSTYLE_END
  0
ENDSEC
  0
SECTION
  2
ACDSDATA
 70
     2
 71
     8
  0
ACDSSCHEMA
 90
        0
  1
AcDb_Thumbnail_Schema
  2
AcDbDs::ID
280
    10
 91
        8
  2
Thumbnail_Data
280
    15
 91
        0
101
ACDSRECORD
 95
        0
 90
        1
  2
AcDbDs::TreatedAsObjectData
280
     1
291
     1
101
ACDSRECORD
 95
        0
 90
        2
  2
AcDbDs::Legacy
280
     1
291
     1
101
ACDSRECORD
  1
AcDbDs::ID
 90
        3
  2
AcDs:Indexable
280
     1
291
     1
101
ACDSRECORD
  1
AcDbDs::ID
 90
        4
  2
AcDbDs::HandleAttribute
280
     7
282
     1
  0
ACDSSCHEMA
 90
        1
  1
AcDbDs::TreatedAsObjectDataSchema
  2
AcDbDs::TreatedAsObjectData
280
     1
 91
        0
  0
ACDSSCHEMA
 90
        2
  1
AcDbDs::LegacySchema
  2
AcDbDs::Legacy
280
     1
 91
        0
  0
ACDSSCHEMA
 90
        3
  1
AcDbDs::IndexedPropertySchema
  2
AcDs:Indexable
280
     1
 91
        0
  0
ACDSSCHEMA
 90
        4
  1
AcDbDs::HandleAttributeSchema
  2
AcDbDs::HandleAttribute
280
     7
 91
        1
284
     1
  0
ACDSRECORD
 90
        0
  2
AcDbDs::ID
280
    10
320
72
  2
Thumbnail_Data
280
    15
 94
     1027
310
89504E470D0A1A0A0000000D4948445200000100000000B90803000000F01E115D00000300504C5445212830FFFFFF2128300000000000000000000000000000000000000000000000000000330000660000990000CC0000FF0033000033330033660033990033CC0033FF0066000066330066660066990066CC0066FF0099
310
000099330099660099990099CC0099FF00CC0000CC3300CC6600CC9900CCCC00CCFF00FF0000FF3300FF6600FF9900FFCC00FFFF3300003300333300663300993300CC3300FF3333003333333333663333993333CC3333FF3366003366333366663366993366CC3366FF3399003399333399663399993399CC3399FF33CC00
310
33CC3333CC6633CC9933CCCC33CCFF33FF0033FF3333FF6633FF9933FFCC33FFFF6600006600336600666600996600CC6600FF6633006633336633666633996633CC6633FF6666006666336666666666996666CC6666FF6699006699336699666699996699CC6699FF66CC0066CC3366CC6666CC9966CCCC66CCFF66FF0066
310
FF3366FF6666FF9966FFCC66FFFF9900009900339900669900999900CC9900FF9933009933339933669933999933CC9933FF9966009966339966669966999966CC9966FF9999009999339999669999999999CC9999FF99CC0099CC3399CC6699CC9999CCCC99CCFF99FF0099FF3399FF6699FF9999FFCC99FFFFCC0000CC00
310
33CC0066CC0099CC00CCCC00FFCC3300CC3333CC3366CC3399CC33CCCC33FFCC6600CC6633CC6666CC6699CC66CCCC66FFCC9900CC9933CC9966CC9999CC99CCCC99FFCCCC00CCCC33CCCC66CCCC99CCCCCCCCCCFFCCFF00CCFF33CCFF66CCFF99CCFFCCCCFFFFFF0000FF0033FF0066FF0099FF00CCFF00FFFF3300FF3333
310
FF3366FF3399FF33CCFF33FFFF6600FF6633FF6666FF6699FF66CCFF66FFFF9900FF9933FF9966FF9999FF99CCFF99FFFFCC00FFCC33FFCC66FFCC99FFCCCCFFCCFFFFFF00FFFF33FFFF66FFFF99FFFFCCFFFFFF0000000D0D0D1A1A1A2828283535354343435050505D5D5D6B6B6B787878868686939393A1A1A1AEAEAEBB
310
BBBBC9C9C9D6D6D6E4E4E4F1F1F1FFFFFF0000000000000000000000000000000000000000000000000000000000002E4550F1000000BE4944415478DAEDD8B10A8020188551DFFF7DFFBD205C42255A22EF3943214D7E1899AD01000000000000000000000000000000000064A9D375AD3EE8B7A8D94F526C1FE0F5430104
310
104000010410400001041040000104104080BF065812C02B2080000208208000020820800002082080000208B05F80F413A178F10BA01E8F1202D47D6805647F0605104000016C8472028C9A24BD02A369C7FD0E57E04E6839630722020820800002046F859D0A030000000000000000000000C0A70ECE6855B92552823000
310
00000049454E44AE426082
  0
ENDSEC
  0
EOF
